{
.appVersion = "1193";
DisplayStrings = (
"/Lcaron/dcaron/lcaron/tcaron"
);
date = "2016-03-09 15:11:54 +0000";
familyName = Tomorrow;
featurePrefixes = (
{
automatic = 1;
code = "languagesystem DFLT dflt;\012languagesystem latn dflt;\012languagesystem latn ROM;\012languagesystem latn MOL;\012languagesystem latn KAZ;\012languagesystem latn TAT;\012languagesystem latn TRK;\012languagesystem latn CRT;\012languagesystem latn AZE;\012";
name = Languagesystems;
}
);
features = (
{
automatic = 1;
code = "feature ccmp;\012feature locl;\012feature ordn;\012";
name = aalt;
},
{
automatic = 1;
code = "lookup ccmp_Other_1 {\012	@CombiningTopAccents = [acutecomb brevecomb caroncomb circumflexcomb commaturnedabovecomb dieresiscomb dotaccentcomb gravecomb hungarumlautcomb macroncomb ringcomb tildecomb];\012	@CombiningNonTopAccents = [cedillacomb ogonekcomb slashlongcomb slashshortcomb strokeshortcomb];\012	sub [i]' @CombiningTopAccents by [idotless];\012	sub [i]' @CombiningNonTopAccents @CombiningTopAccents by [idotless];\012} ccmp_Other_1;\012";
disabled = 1;
name = ccmp;
},
{
automatic = 1;
code = "script latn;\012language ROM;\012sub Scedilla by Scommaaccent;\012sub scedilla by scommaaccent;\012sub Tcedilla by Tcommaaccent;\012sub tcedilla by tcommaaccent;\012language MOL;\012sub Scedilla by Scommaaccent;\012sub scedilla by scommaaccent;\012sub Tcedilla by Tcommaaccent;\012sub tcedilla by tcommaaccent;\012language KAZ;\012sub i by idotaccent;\012language TAT;\012sub i by idotaccent;\012language TRK;\012sub i by idotaccent;\012language CRT;\012sub i by idotaccent;\012language AZE;\012sub i by idotaccent;\012";
name = locl;
},
{
automatic = 1;
code = "sub [zero one two three four five six seven eight nine] [A a]' by ordfeminine;\012sub [zero one two three four five six seven eight nine] [O o]' by ordmasculine;\012";
name = ordn;
}
);
fontMaster = (
{
ascender = 800;
capHeight = 670;
descender = -170;
guideLines = (
{
position = "{308, 895}";
},
{
position = "{437, -47}";
},
{

glyphs = (
{
glyphname = A;
lastChange = "2019-01-02 21:28:37 +0000";
layers = (
{
anchors = (
{
name = botton;
position = "{382, 0}";
},
{
name = ogonek;
position = "{754, 0}";
},
{
name = top;
position = "{383, 670}";
}
);
layerId = "2BED5241-FEE2-452B-8B42-4A46EDD0955E";
paths = (
{
closed = 1;
nodes = (
"281 0 LINE",
"363 516 LINE",
"401 516 LINE",
"483 0 LINE",
"754 0 LINE",
"606 670 LINE",
"158 670 LINE",
"10 0 LINE"
);
},
{
closed = 1;
nodes = (
"502 99 LINE",
"502 264 LINE",
"262 264 LINE",
"262 99 LINE"
);
}
);
width = 764;
}
);
leftKerningGroup = A;
rightKerningGroup = A;
unicode = 0041;
},
{
glyphname = AE;
lastChange = "2019-01-02 21:28:37 +0000";
layers = (
{
components = (
{
name = A;
}
);
layerId = "2BED5241-FEE2-452B-8B42-4A46EDD0955E";
paths = (
{
closed = 1;
nodes = (
"1025 0 LINE",
"1025 179 LINE",
"595 179 LINE",
"595 0 LINE"
);
},
{
closed = 1;
nodes = (
"1025 491 LINE",
"1025 670 LINE",
"595 670 LINE",
"595 491 LINE"
);
},
{
closed = 1;
nodes = (
"986 262 LINE",
"986 406 LINE",
"595 406 LINE",
"595 262 LINE"
);
}
);
width = 1065;
}
);
leftKerningGroup = A;
leftMetricsKey = A;
rightKerningGroup = E;
rightMetricsKey = E;
unicode = 00C6;
},
{
glyphname = B;
lastChange = "2019-02-17 21:39:29 +0000";
layers = (
{
components = (
{
name = _part.H;
transform = "{1, 0, 0, 1, -10, 0}";
}
);
hints = (
{
origin = "{0, 0}";
type = Corner;
name = _corner.dia_esq;
options = 1;
},
{
origin = "{0, 4}";
type = Corner;
name = _corner.dia_dir;
options = 1;
}
);
layerId = "2BED5241-FEE2-452B-8B42-4A46EDD0955E";
paths = (
{
closed = 1;
nodes = (
"700 0 LINE",
"700 301 LINE",
"628 361 LINE",
"679 404 LINE",
"679 670 LINE",
"62 670 LINE",
"62 531 LINE",
"434 531 LINE",
"434 420 LINE",
"248 420 LINE",
"248 281 LINE",
"441 281 LINE",
"441 139 LINE",
"62 139 LINE",
"62 0 LINE"
);
}
);
width = 735;
}
);
leftKerningGroup = H;
leftMetricsKey = H;
rightKerningGroup = B;
rightMetricsKey = O;
unicode = 0042;
},
{
glyphname = C;
lastChange = "2019-01-02 21:28:37 +0000";
layers = (
{
anchors = (
{
name = botton;
position = "{355, 0}";
},
{
name = top;
position = "{358, 670}";
}
);
hints = (
{
origin = "{0, 13}";
type = Corner;
name = _corner.dia_dir;
options = 1;
},
{
origin = "{0, 12}";
type = Corner;
name = _corner.dia_esq;
options = 1;
}
);
layerId = "2BED5241-FEE2-452B-8B42-4A46EDD0955E";
paths = (
{
closed = 1;
nodes = (
"580 0 LINE",
"681 86 LINE",
"681 284 LINE",
"415 284 LINE",
"415 139 LINE",
"294 139 LINE",
"294 531 LINE",
"413 531 LINE",
"413 389 LINE",
"679 389 LINE",
"679 584 LINE",
"578 670 LINE",
"35 670 LINE",
"35 0 LINE"
);
}
);
width = 716;
}
);
leftKerningGroup = O;
leftMetricsKey = O;
rightKerningGroup = C;
rightMetricsKey = O;
unicode = 0043;
},
{
glyphname = D;
lastChange = "2019-01-02 21:28:37 +0000";
layers = (
{
anchors = (
{
name = center;
position = "{167, 340}";
},
{
name = top;
position = "{348, 670}";
}
);
components = (
{
name = _part.H;
transform = "{1, 0, 0, 1, -10, 0}";
}
);
layerId = "2BED5241-FEE2-452B-8B42-4A46EDD0955E";
paths = (
{
closed = 1;
nodes = (
"552 0 LINE",
"703 136 LINE",
"703 533 LINE",
"552 670 LINE",
"62 670 LINE",
"62 531 LINE",
"444 531 LINE",
"444 139 LINE",
"62 139 LINE",
"62 0 LINE"
);
}
);
width = 738;
}
);
leftKerningGroup = H;
leftMetricsKey = H;
rightKerningGroup = D;
rightMetricsKey = O;
unicode = 0044;
},
{
glyphname = E;
lastChange = "2019-01-02 21:28:37 +0000";
layers = (
{
anchors = (
{
name = botton;
position = "{332, 0}";
},
{
name = ogonek;
position = "{630, 0}";
},
{
name = top;
position = "{347, 670}";
}
);
components = (
{
name = _part.H;
transform = "{1, 0, 0, 1, -10, 0}";
}
);
layerId = "2BED5241-FEE2-452B-8B42-4A46EDD0955E";
paths = (
{
closed = 1;
nodes = (
"630 0 LINE",
"630 179 LINE",
"220 179 LINE",
"220 0 LINE"
);
},
{
closed = 1;
nodes = (
"630 491 LINE",
"630 670 LINE",
"220 670 LINE",
"220 491 LINE"
);
},
{
closed = 1;
nodes = (
"591 263 LINE",
"591 407 LINE",
"220 407 LINE",
"220 263 LINE"
);
}
);
width = 670;
}
);
leftKerningGroup = H;
leftMetricsKey = H;
rightKerningGroup = E;
unicode = 0045;
},
{
glyphname = F;
lastChange = "2019-01-02 21:28:37 +0000";
layers = (
{
components = (
{
name = _part.H;
transform = "{1, 0, 0, 1, -10, 0}";
}
);
layerId = "2BED5241-FEE2-452B-8B42-4A46EDD0955E";
paths = (
{
closed = 1;
nodes = (
"618 491 LINE",
"618 670 LINE",
"221 670 LINE",
"221 491 LINE"
);
},
{
closed = 1;
nodes = (
"574 235 LINE",
"574 395 LINE",
"221 395 LINE",
"221 235 LINE"
);
}
);
width = 648;
}
);
leftKerningGroup = H;
leftMetricsKey = H;
rightKerningGroup = F;
unicode = 0046;
},
{
glyphname = G;
lastChange = "2019-01-02 21:28:37 +0000";
layers = (
{
anchors = (
{
name = botton;
position = "{354, 0}";
},
{
name = top;
position = "{360, 670}";
}
);
hints = (
{
origin = "{0, 12}";
type = Corner;
name = _corner.dia_dir;
options = 1;
},
{
origin = "{0, 11}";
type = Corner;
name = _corner.dia_esq;
options = 1;
}
);
layerId = "2BED5241-FEE2-452B-8B42-4A46EDD0955E";
paths = (
{
closed = 1;
nodes = (
"425 0 LINE",
"544 100 LINE",
"497 234 LINE",
"385 139 LINE",
"294 139 LINE",
"294 531 LINE",
"426 531 LINE",
"426 433 LINE",
"692 432 LINE",
"692 584 LINE",
"591 670 LINE",
"35 670 LINE",
"35 0 LINE"
);
},
{
closed = 1;
nodes = (
"692 0 LINE",
"692 367 LINE",
"402 367 LINE",
"402 228 LINE",
"489 228 LINE",
"489 146 LINE",
"491 127 LINE",
"491 0 LINE"
);
}
);
width = 737;
}
);
leftKerningGroup = O;
leftMetricsKey = O;
rightKerningGroup = G;
rightMetricsKey = H;
unicode = 0047;
},
{
glyphname = H;
lastChange = "2019-01-02 21:28:37 +0000";
layers = (
{
anchors = (
{
name = top;
position = "{368, 670}";
}
);
components = (
{
name = _part.H;
transform = "{1, 0, 0, 1, -10, 0}";
},
{
name = _part.H;
transform = "{1, 0, 0, 1, 378, 0}";
}
);
layerId = "2BED5241-FEE2-452B-8B42-4A46EDD0955E";
paths = (
{
closed = 1;
nodes = (
"506 256 LINE",
"506 435 LINE",
"244 435 LINE",
"244 256 LINE"
);
}
);
width = 737;
}
);
leftKerningGroup = H;
rightKerningGroup = H;
unicode = 0048;
},
{
glyphname = Hbar;
lastChange = "2019-01-02 21:28:37 +0000";
layers = (
{
components = (
{
name = H;
}
);
layerId = "2BED5241-FEE2-452B-8B42-4A46EDD0955E";
paths = (
{
closed = 1;
nodes = (
"737 497 LINE",
"737 605 LINE",
"0 605 LINE",
"0 497 LINE"
);
}
);
width = 737;
}
);
unicode = 0126;
},
{
glyphname = I;
lastChange = "2019-02-09 18:56:47 +0000";
layers = (
{
anchors = (
{
name = botton;
position = "{244, 0}";
},
{
name = ogonek;
position = "{244, 0}";
},
{
name = top;
position = "{244, 670}";
},
{
name = topleft;
position = "{244, 670}";
}
);
components = (
{
name = _part.H;
transform = "{0.95, 0, 0, 1, 68, 0}";
}
);
layerId = "2BED5241-FEE2-452B-8B42-4A46EDD0955E";
paths = (
{
closed = 1;
nodes = (
"457 0 LINE",
"457 179 LINE",
"30 179 LINE",
"30 0 LINE"
);
},
{
closed = 1;
nodes = (
"457 491 LINE",
"457 670 LINE",
"30 670 LINE",
"30 491 LINE"
);
}
);
width = 487;
}
);
leftKerningGroup = H;
rightKerningGroup = H;
unicode = 0049;
},
{
glyphname = J;
lastChange = "2019-01-02 21:28:37 +0000";
layers = (
{
anchors = (
{
name = top;
position = "{519, 670}";
}
);
hints = (
{
origin = "{0, 0}";
type = Corner;
name = _corner.dia_esq;
options = 1;
}
);
layerId = "2BED5241-FEE2-452B-8B42-4A46EDD0955E";
paths = (
{
closed = 1;
nodes = (
"649 0 LINE",
"649 670 LINE",
"390 670 LINE",
"390 139 LINE",
"284 139 LINE",
"284 322 LINE",
"25 322 LINE",
"25 86 LINE",
"126 0 LINE"
);
}
);
width = 694;
}
);
rightKerningGroup = J;
rightMetricsKey = H;
unicode = 004A;
},
{
glyphname = K;
lastChange = "2019-01-02 21:28:37 +0000";
layers = (
{
components = (
{
name = _part.H;
transform = "{1, 0, 0, 1, -10, 0}";
}
);
layerId = "2BED5241-FEE2-452B-8B42-4A46EDD0955E";
paths = (
{
closed = 1;
nodes = (
"751 670 LINE",
"457 670 LINE",
"282 400 LINE",
"301 375 LINE",
"418 216 LINE"
);
},
{
closed = 1;
nodes = (
"745 0 LINE",
"434 509 LINE",
"258 408 LINE",
"260 370 LINE",
"454 0 LINE"
);
}
);
width = 751;
}
);
leftKerningGroup = H;
leftMetricsKey = H;
rightKerningGroup = K;
unicode = 004B;
},
{
glyphname = L;
lastChange = "2019-01-02 21:28:37 +0000";
layers = (
{
anchors = (
{
name = botton;
position = "{318, 0}";
},
{
name = top;
position = "{185, 670}";
}
);
components = (
{
name = _part.H;
transform = "{1, 0, 0, 1, -10, 0}";
}
);
layerId = "2BED5241-FEE2-452B-8B42-4A46EDD0955E";
paths = (
{
closed = 1;
nodes = (
"572 0 LINE",
"572 189 LINE",
"221 189 LINE",
"221 0 LINE"
);
}
);
width = 602;
}
);
leftKerningGroup = H;
leftMetricsKey = H;
rightKerningGroup = L;
unicode = 004C;
},
{
glyphname = Lslash;
lastChange = "2019-01-02 21:28:37 +0000";
layers = (
{
components = (
{
name = L;
}
);
layerId = "2BED5241-FEE2-452B-8B42-4A46EDD0955E";
paths = (
{
closed = 1;
nodes = (
"-15 321 LINE",
"-15 178 LINE",
"446 380 LINE",
"446 523 LINE"
);
}
);
width = 602;
}
);
rightKerningGroup = L;
rightMetricsKey = L;
unicode = 0141;
},
{
glyphname = M;
lastChange = "2019-01-02 21:28:37 +0000";
layers = (
{
components = (
{
name = _part.H;
transform = "{0.9, 0, 0, 1, 514, 0}";
},
{
name = _part.H;
transform = "{0.9, 0, 0, 1, -5, 0}";
}
);
layerId = "2BED5241-FEE2-452B-8B42-4A46EDD0955E";
paths = (
{
closed = 1;
nodes = (
"470 42 LINE",
"564 347 LINE",
"683 347 LINE",
"683 670 LINE",
"546 670 LINE",
"420 344 LINE",
"295 670 LINE",
"158 670 LINE",
"157 347 LINE",
"277 347 LINE",
"371 42 LINE"
);
}
);
width = 842;
}
);
leftKerningGroup = M;
leftMetricsKey = H;
rightKerningGroup = M;
rightMetricsKey = H;
unicode = 004D;
},
{
glyphname = N;
lastChange = "2019-01-02 21:28:37 +0000";
layers = (
{
anchors = (
{
name = botton;
position = "{352, 0}";
},
{
name = top;
position = "{352, 670}";
}
);
components = (
{
name = _part.H;
transform = "{0.9, 0, 0, 1, 376, 0}";
},
{
name = _part.H;
transform = "{0.9, 0, 0, 1, -5, 0}";
}
);
layerId = "2BED5241-FEE2-452B-8B42-4A46EDD0955E";
paths = (
{
closed = 1;
nodes = (
"526 0 LINE",
"526 342 LINE",
"426 342 LINE",
"278 670 LINE",
"183 670 LINE",
"183 342 LINE",
"277 342 LINE",
"425 0 LINE"
);
}
);
width = 704;
}
);
leftKerningGroup = H;
leftMetricsKey = H;
rightKerningGroup = H;
rightMetricsKey = H;
unicode = 004E;
},
{
glyphname = Eng;
lastChange = "2019-01-02 21:28:37 +0000";
layers = (
{
anchors = (
{
name = botton;
position = "{386, 0}";
},
{
name = top;
position = "{385, 670}";
}
);
components = (
{
name = _part.H;
transform = "{1, 0, 0, 1, -10, 0}";
},
{
name = _part.H;
transform = "{1, 0, 0, 1, 398, 0}";
}
);
layerId = "2BED5241-FEE2-452B-8B42-4A46EDD0955E";
paths = (
{
closed = 1;
nodes = (
"560 0 LINE",
"560 385 LINE",
"460 385 LINE",
"325 670 LINE",
"217 670 LINE",
"217 285 LINE",
"318 285 LINE",
"453 0 LINE"
);
},
{
closed = 1;
nodes = (
"611 -170 LINE",
"712 -84 LINE",
"712 45 LINE",
"453 45 LINE",
"453 -52 LINE",
"445 -61 LINE",
"371 -61 LINE",
"371 -170 LINE"
);
}
);
width = 757;
}
);
leftMetricsKey = N;
rightMetricsKey = N;
unicode = 014A;
},
{
glyphname = O;
lastChange = "2019-01-02 21:28:37 +0000";
layers = (
{
anchors = (
{
name = botton;
position = "{360, 0}";
},
{
name = center;
position = "{360, 335}";
},
{
name = horn;
position = "{618, 586}";
},
{
name = top;
position = "{360, 670}";
},
{
name = topleft;
position = "{35, 670}";
},
{
name = topright;
position = "{685, 670}";
}
);
hints = (
{
origin = "{0, 1}";
type = Corner;
name = _corner.dia_dir;
options = 1;
},
{
origin = "{0, 0}";
type = Corner;
name = _corner.dia_esq;
options = 1;
},
{
origin = "{0, 3}";
type = Corner;
name = _corner.dia_dir;
options = 1;
},
{
origin = "{0, 2}";
type = Corner;
name = _corner.dia_esq;
options = 1;
}
);
layerId = "2BED5241-FEE2-452B-8B42-4A46EDD0955E";
paths = (
{
closed = 1;
nodes = (
"685 0 LINE",
"685 670 LINE",
"35 670 LINE",
"35 0 LINE"
);
},
{
closed = 1;
nodes = (
"294 531 LINE",
"426 531 LINE",
"426 139 LINE",
"294 139 LINE"
);
}
);
width = 720;
}
);
leftKerningGroup = O;
rightKerningGroup = O;
unicode = 004F;
},
{
glyphname = Oslash;
lastChange = "2019-01-02 21:28:37 +0000";
layers = (
{
components = (
{
name = O;
}
);
layerId = "2BED5241-FEE2-452B-8B42-4A46EDD0955E";
paths = (
{
closed = 1;
nodes = (
"574 605 LINE",
"475 643 LINE",
"147 71 LINE",
"247 34 LINE"
);
}
);
width = 720;
}
);
leftKerningGroup = O;
leftMetricsKey = O;
rightKerningGroup = O;
rightMetricsKey = O;
unicode = 00D8;
},
{
glyphname = OE;
lastChange = "2019-01-02 21:28:37 +0000";
layers = (
{
anchors = (
{
name = bottom;
position = "{712, 0}";
},
{
name = ogonek;
position = "{1030, 0}";
},
{
name = top;
position = "{727, 670}";
}
);
components = (
{
name = O;
},
{
name = _part.H;
transform = "{1, 0, 0, 1, 370, 0}";
}
);
layerId = "2BED5241-FEE2-452B-8B42-4A46EDD0955E";
paths = (
{
closed = 1;
nodes = (
"1010 0 LINE",
"1010 189 LINE",
"600 189 LINE",
"600 0 LINE"
);
},
{
closed = 1;
nodes = (
"1010 481 LINE",
"1010 670 LINE",
"600 670 LINE",
"600 481 LINE"
);
},
{
closed = 1;
nodes = (
"971 262 LINE",
"971 406 LINE",
"600 406 LINE",
"600 262 LINE"
);
}
);
width = 1050;
}
);
leftKerningGroup = O;
leftMetricsKey = O;
rightKerningGroup = E;
rightMetricsKey = E;
unicode = 0152;
},
{
glyphname = P;
lastChange = "2019-01-02 21:28:37 +0000";
layers = (
{
components = (
{
name = _part.H;
transform = "{1, 0, 0, 1, -10, 0}";
}
);
hints = (
{
origin = "{0, 0}";
type = Corner;
name = _corner.dia_esq;
options = 1;
},
{
origin = "{0, 1}";
type = Corner;
name = _corner.dia_dir;
options = 1;
}
);
layerId = "2BED5241-FEE2-452B-8B42-4A46EDD0955E";
paths = (
{
closed = 1;
nodes = (
"681 186 LINE",
"681 670 LINE",
"270 670 LINE",
"270 531 LINE",
"432 531 LINE",
"432 325 LINE",
"270 325 LINE",
"270 186 LINE"
);
}
);
width = 696;
}
);
leftKerningGroup = H;
leftMetricsKey = H;
unicode = 0050;
},
{
glyphname = Thorn;
lastChange = "2019-01-02 21:28:37 +0000";
layers = (
{
components = (
{
name = _part.H;
transform = "{1, 0, 0, 1, -10, 0}";
}
);
hints = (
{
origin = "{0, 0}";
type = Corner;
name = _corner.dia_esq;
options = 1;
},
{
origin = "{0, 1}";
type = Corner;
name = _corner.dia_dir;
options = 1;
}
);
layerId = "2BED5241-FEE2-452B-8B42-4A46EDD0955E";
paths = (
{
closed = 1;
nodes = (
"701 103 LINE",
"701 588 LINE",
"270 588 LINE",
"270 469 LINE",
"422 469 LINE",
"422 222 LINE",
"270 222 LINE",
"270 103 LINE"
);
}
);
width = 716;
}
);
leftMetricsKey = P;
rightMetricsKey = P;
unicode = 00DE;
},
{
glyphname = Q;
lastChange = "2019-01-02 21:28:37 +0000";
layers = (
{
components = (
{
name = O;
}
);
layerId = "2BED5241-FEE2-452B-8B42-4A46EDD0955E";
paths = (
{
closed = 1;
nodes = (
"471 -96 LINE",
"471 80 LINE",
"268 80 LINE",
"268 -96 LINE"
);
}
);
width = 720;
}
);
leftKerningGroup = O;
leftMetricsKey = O;
rightKerningGroup = O;
rightMetricsKey = O;
unicode = 0051;
},
{
glyphname = R;
lastChange = "2019-01-02 21:28:37 +0000";
layers = (
{
anchors = (
{
name = botton;
position = "{373, 0}";
},
{
name = top;
position = "{358, 670}";
}
);
components = (
{
name = _part.H;
transform = "{1, 0, 0, 1, -10, 0}";
}
);
hints = (
{
origin = "{0, 1}";
type = Corner;
name = _corner.dia_dir;
options = 1;
},
{
origin = "{0, 0}";
type = Corner;
name = _corner.dia_esq;
options = 1;
}
);
layerId = "2BED5241-FEE2-452B-8B42-4A46EDD0955E";
paths = (
{
closed = 1;
nodes = (
"684 207 LINE",
"684 670 LINE",
"270 670 LINE",
"270 531 LINE",
"435 531 LINE",
"435 346 LINE",
"270 346 LINE",
"270 207 LINE"
);
},
{
closed = 1;
nodes = (
"714 0 LINE",
"604 305 LINE",
"359 305 LINE",
"459 0 LINE"
);
}
);
width = 724;
}
);
leftKerningGroup = H;
leftMetricsKey = H;
rightKerningGroup = R;
unicode = 0052;
},
{
glyphname = S;
lastChange = "2019-01-02 21:28:37 +0000";
layers = (
{
anchors = (
{
name = botton;
position = "{335, 0}";
},
{
name = top;
position = "{333, 670}";
}
);
hints = (
{
origin = "{0, 0}";
type = Corner;
name = _corner.dia_esq;
options = 1;
},
{
origin = "{0, 1}";
type = Corner;
name = _corner.dia_dir;
options = 1;
},
{
origin = "{0, 6}";
type = Corner;
name = _corner.dia_esq;
options = 1;
},
{
origin = "{0, 7}";
type = Corner;
name = _corner.dia_dir;
options = 1;
}
);
layerId = "2BED5241-FEE2-452B-8B42-4A46EDD0955E";
paths = (
{
closed = 1;
nodes = (
"639 0 LINE",
"639 422 LINE",
"281 423 LINE",
"281 496 LINE",
"606 496 LINE",
"606 670 LINE",
"30 670 LINE",
"30 256 LINE",
"387 255 LINE",
"387 175 LINE",
"58 175 LINE",
"58 0 LINE"
);
}
);
width = 669;
}
);
leftKerningGroup = S;
rightKerningGroup = S;
unicode = 0053;
},
{
glyphname = Germandbls;
lastChange = "2019-01-02 21:28:37 +0000";
layers = (
{
layerId = "2BED5241-FEE2-452B-8B42-4A46EDD0955E";
paths = (
{
closed = 1;
nodes = (
"316 0 LINE",
"316 551 LINE",
"406 551 LINE",
"406 508 LINE",
"349 402 LINE",
"559 333 LINE",
"640 480 LINE",
"640 584 LINE",
"539 670 LINE",
"146 670 LINE",
"45 584 LINE",
"45 0 LINE"
);
},
{
closed = 1;
nodes = (
"596 0 LINE",
"697 86 LINE",
"697 263 LINE",
"533 402 LINE",
"349 402 LINE",
"349 283 LINE",
"417 283 LINE",
"418 119 LINE",
"349 119 LINE",
"349 0 LINE"
);
}
);
width = 732;
}
);
leftMetricsKey = H;
rightMetricsKey = B;
unicode = 1E9E;
},
{
glyphname = Schwa;
lastChange = "2019-01-02 21:28:37 +0000";
layers = (
{
hints = (
{
origin = "{2, 1}";
type = Corner;
name = _corner.dia_esq;
options = 1;
},
{
origin = "{2, 2}";
type = Corner;
name = _corner.dia_dir;
options = 1;
},
{
origin = "{2, 0}";
type = Corner;
name = _corner.dia_dir;
options = 1;
}
);
layerId = "2BED5241-FEE2-452B-8B42-4A46EDD0955E";
paths = (
{
closed = 1;
nodes = (
"35 407 LINE",
"35 263 LINE",
"496 263 LINE",
"496 407 LINE"
);
},
{
closed = 0;
nodes = (
"294 468 LINE"
);
},
{
closed = 1;
nodes = (
"35 0 LINE",
"685 0 LINE",
"685 670 LINE",
"42 670 LINE",
"42 491 LINE",
"426 491 LINE",
"426 139 LINE",
"294 139 LINE",
"294 407 LINE",
"35 407 LINE"
);
}
);
width = 720;
}
);
leftMetricsKey = O;
rightMetricsKey = O;
unicode = 018F;
},
{
glyphname = T;
lastChange = "2019-02-18 17:08:35 +0000";
layers = (
{
anchors = (
{
name = botton;
position = "{313, 0}";
},
{
name = top;
position = "{313, 670}";
}
);
components = (
{
name = _part.H;
transform = "{1, 0, 0, 1, 128, 0}";
}
);
layerId = "2BED5241-FEE2-452B-8B42-4A46EDD0955E";
paths = (
{
closed = 1;
nodes = (
"628 491 LINE",
"628 670 LINE",
"15 670 LINE",
"15 491 LINE"
);
}
);
width = 643;
}
);
leftKerningGroup = T;
rightKerningGroup = T;
unicode = 0054;
},
{
glyphname = Tbar;
lastChange = "2019-01-02 21:28:37 +0000";
layers = (
{
components = (
{
name = T;
}
);
layerId = "2BED5241-FEE2-452B-8B42-4A46EDD0955E";
paths = (
{
closed = 1;
nodes = (
"582 213 LINE",
"582 366 LINE",
"60 366 LINE",
"60 213 LINE"
);
}
);
width = 643;
}
);
leftKerningGroup = T;
leftMetricsKey = T;
rightKerningGroup = T;
rightMetricsKey = T;
unicode = 0166;
},
{
glyphname = U;
lastChange = "2019-01-02 21:28:37 +0000";
layers = (
{
anchors = (
{
name = botton;
position = "{365, 0}";
},
{
name = horn;
position = "{663, 586}";
},
{
name = ogonek;
position = "{434, 0}";
},
{
name = top;
position = "{365, 670}";
},
{
name = topright;
position = "{721, 670}";
}
);
hints = (
{
origin = "{0, 6}";
type = Corner;
name = _corner.dia_esq;
options = 1;
},
{
origin = "{0, 5}";
type = Corner;
name = _corner.dia_dir;
options = 1;
}
);
layerId = "2BED5241-FEE2-452B-8B42-4A46EDD0955E";
paths = (
{
closed = 1;
nodes = (
"425 670 LINE",
"425 139 LINE",
"304 139 LINE",
"304 670 LINE",
"45 670 LINE",
"45 0 LINE",
"684 0 LINE",
"684 670 LINE"
);
}
);
width = 729;
}
);
leftKerningGroup = U;
rightKerningGroup = U;
unicode = 0055;
},
{
glyphname = V;
lastChange = "2019-01-02 21:28:37 +0000";
layers = (
{
layerId = "2BED5241-FEE2-452B-8B42-4A46EDD0955E";
paths = (
{
closed = 1;
nodes = (
"535 0 LINE",
"695 451 LINE",
"695 670 LINE",
"445 670 LINE",
"384 169 LINE",
"346 169 LINE",
"286 670 LINE",
"35 670 LINE",
"35 451 LINE",
"196 0 LINE"
);
}
);
width = 730;
}
);
leftKerningGroup = V;
rightKerningGroup = V;
unicode = 0056;
},
{
glyphname = W;
lastChange = "2019-01-02 21:28:37 +0000";
layers = (
{
anchors = (
{
name = bottom;
position = "{531, 0}";
},
{
name = top;
position = "{521, 670}";
}
);
layerId = "2BED5241-FEE2-452B-8B42-4A46EDD0955E";
paths = (
{
closed = 1;
nodes = (
"459 0 LINE",
"521 155 LINE",
"582 0 LINE",
"860 0 LINE",
"996 433 LINE",
"996 670 LINE",
"736 670 LINE",
"700 169 LINE",
"662 169 LINE",
"627 670 LINE",
"414 670 LINE",
"379 169 LINE",
"341 169 LINE",
"306 670 LINE",
"45 670 LINE",
"45 433 LINE",
"181 0 LINE"
);
}
);
width = 1041;
}
);
leftKerningGroup = W;
rightKerningGroup = W;
unicode = 0057;
},
{
glyphname = X;
lastChange = "2019-01-02 21:28:37 +0000";
layers = (
{
layerId = "2BED5241-FEE2-452B-8B42-4A46EDD0955E";
paths = (
{
closed = 1;
nodes = (
"308 0 LINE",
"353 262 LINE",
"391 262 LINE",
"436 0 LINE",
"699 0 LINE",
"699 206 LINE",
"589 345 LINE",
"699 476 LINE",
"699 670 LINE",
"436 670 LINE",
"391 416 LINE",
"353 416 LINE",
"308 670 LINE",
"45 670 LINE",
"45 476 LINE",
"156 345 LINE",
"45 206 LINE",
"45 0 LINE"
);
}
);
width = 744;
}
);
leftKerningGroup = X;
rightKerningGroup = X;
unicode = 0058;
},
{
glyphname = Y;
lastChange = "2019-01-02 21:28:37 +0000";
layers = (
{
anchors = (
{
name = botton;
position = "{342, 0}";
},
{
name = top;
position = "{342, 670}";
},
{
name = topleft;
position = "{5, 670}";
}
);
layerId = "2BED5241-FEE2-452B-8B42-4A46EDD0955E";
paths = (
{
closed = 1;
nodes = (
"469 0 LINE",
"469 200 LINE",
"614 326 LINE",
"669 670 LINE",
"406 670 LINE",
"361 334 LINE",
"323 334 LINE",
"278 670 LINE",
"15 670 LINE",
"70 326 LINE",
"215 201 LINE",
"215 0 LINE"
);
}
);
width = 684;
}
);
leftKerningGroup = Y;
unicode = 0059;
},
{
glyphname = Z;
lastChange = "2019-01-02 21:28:37 +0000";
layers = (
{
anchors = (
{
name = top;
position = "{332, 670}";
}
);
layerId = "2BED5241-FEE2-452B-8B42-4A46EDD0955E";
paths = (
{
closed = 1;
nodes = (
"613 0 LINE",
"613 179 LINE",
"316 179 LINE",
"613 481 LINE",
"613 670 LINE",
"44 670 LINE",
"44 491 LINE",
"329 491 LINE",
"30 189 LINE",
"30 0 LINE"
);
}
);
width = 643;
}
);
leftKerningGroup = Z;
rightKerningGroup = Z;
unicode = 005A;
},
{
glyphname = a;
lastChange = "2019-02-18 17:11:37 +0000";
layers = (
{
anchors = (
{
name = botton;
position = "{303, 0}";
},
{
name = ogonek;
position = "{424, 0}";
},
{
name = top;
position = "{284, 475}";
}
);
hints = (
{
origin = "{0, 11}";
type = Corner;
name = _corner.dia_esq;
options = 1;
},
{
origin = "{0, 10}";
type = Corner;
name = _corner.dia_dir;
options = 1;
},
{
origin = "{1, 1}";
type = Corner;
name = _corner.dia_dir;
options = 1;
}
);
layerId = "2BED5241-FEE2-452B-8B42-4A46EDD0955E";
paths = (
{
closed = 1;
nodes = (
"262 0 LINE",
"347 91 LINE",
"347 184 LINE",
"347 184 LINE",
"260 97 LINE",
"231 97 LINE",
"231 210 LINE",
"231 220 LINE",
"350 220 LINE",
"350 296 LINE",
"15 296 LINE",
"15 0 LINE"
);
},
{
closed = 1;
nodes = (
"554 0 LINE",
"554 475 LINE",
"72 475 LINE",
"72 347 LINE",
"270 347 LINE",
"315 347 LINE",
"315 0 LINE"
);
}
);
width = 594;
}
);
leftKerningGroup = a;
rightKerningGroup = n;
unicode = 0061;
},
{
glyphname = ae;
lastChange = "2019-01-02 21:28:37 +0000";
layers = (
{
hints = (
{
origin = "{0, 10}";
type = Corner;
name = _corner.dia_dir;
options = 1;
},
{
origin = "{0, 11}";
type = Corner;
name = _corner.dia_esq;
options = 1;
},
{
origin = "{1, 1}";
type = Corner;
name = _corner.dia_dir;
options = 1;
},
{
origin = "{2, 10}";
type = Corner;
name = _corner.dia_dir;
options = 1;
},
{
origin = "{2, 11}";
type = Corner;
name = _corner.dia_esq;
options = 1;
},
{
origin = "{2, 12}";
type = Corner;
name = _corner.dia_dir;
options = 1;
}
);
layerId = "2BED5241-FEE2-452B-8B42-4A46EDD0955E";
paths = (
{
closed = 1;
nodes = (
"263 0 LINE",
"348 91 LINE",
"348 184 LINE",
"313 149 LINE",
"263 120 LINE",
"232 97 LINE",
"232 210 LINE",
"241 220 LINE",
"351 220 LINE",
"351 296 LINE",
"15 296 LINE",
"15 0 LINE"
);
},
{
closed = 1;
nodes = (
"555 119 LINE",
"555 475 LINE",
"73 475 LINE",
"73 347 LINE",
"271 347 LINE",
"316 338 LINE",
"316 119 LINE"
);
},
{
closed = 1;
nodes = (
"837 0 LINE",
"837 134 LINE",
"564 134 LINE",
"555 143 LINE",
"555 380 LINE",
"565 390 LINE",
"625 390 LINE",
"634 380 LINE",
"634 191 LINE",
"843 191 LINE",
"843 475 LINE",
"316 475 LINE",
"316 0 LINE"
);
},
{
closed = 1;
nodes = (
"843 191 LINE",
"843 281 LINE",
"515 281 LINE",
"515 191 LINE"
);
}
);
width = 878;
}
);
leftKerningGroup = a;
leftMetricsKey = a;
rightKerningGroup = e;
rightMetricsKey = e;
unicode = 00E6;
},
{
glyphname = c;
lastChange = "2019-01-02 21:28:37 +0000";
layers = (
{
anchors = (
{
name = botton;
position = "{344, 0}";
},
{
name = top;
position = "{315, 475}";
}
);
hints = (
{
origin = "{0, 12}";
type = Corner;
name = _corner.dia_esq;
options = 1;
},
{
origin = "{0, 13}";
type = Corner;
name = _corner.dia_dir;
options = 1;
}
);
layerId = "2BED5241-FEE2-452B-8B42-4A46EDD0955E";
paths = (
{
closed = 1;
nodes = (
"576 0 LINE",
"576 134 LINE",
"274 134 LINE",
"274 134 LINE",
"274 390 LINE",
"274 390 LINE",
"358 390 LINE",
"358 390 LINE",
"358 269 LINE",
"578 269 LINE",
"578 389 LINE",
"477 475 LINE",
"35 475 LINE",
"35 0 LINE"
);
}
);
width = 613;
}
);
leftKerningGroup = o;
leftMetricsKey = o;
rightKerningGroup = e;
rightMetricsKey = o;
unicode = 0063;
},
{
glyphname = eth;
lastChange = "2019-01-02 21:28:37 +0000";
layers = (
{
layerId = "2BED5241-FEE2-452B-8B42-4A46EDD0955E";
paths = (
{
closed = 1;
nodes = (
"497 0 LINE",
"598 86 LINE",
"598 385 LINE",
"360 722 LINE",
"197 609 LINE",
"319 436 LINE",
"136 435 LINE",
"35 349 LINE",
"35 86 LINE",
"136 0 LINE"
);
},
{
closed = 1;
nodes = (
"275 95 LINE",
"275 340 LINE",
"275 350 LINE",
"359 350 LINE",
"359 340 LINE",
"359 95 LINE",
"359 85 LINE",
"275 85 LINE"
);
},
{
closed = 1;
nodes = (
"492 639 LINE",
"435 718 LINE",
"178 536 LINE",
"234 456 LINE"
);
}
);
width = 633;
}
);
leftKerningGroup = o;
leftMetricsKey = o;
rightKerningGroup = o;
rightMetricsKey = o;
unicode = 00F0;
},
{
glyphname = e;
lastChange = "2019-01-02 21:28:37 +0000";
layers = (
{
anchors = (
{
name = botton;
position = "{299, 0}";
},
{
name = ogonek;
position = "{564, 0}";
},
{
name = top;
position = "{299, 475}";
}
);
hints = (
{
origin = "{0, 11}";
type = Corner;
name = _corner.dia_esq;
options = 1;
},
{
origin = "{0, 12}";
type = Corner;
name = _corner.dia_dir;
options = 1;
},
{
origin = "{0, 10}";
type = Corner;
name = _corner.dia_dir;
options = 1;
}
);
layerId = "2BED5241-FEE2-452B-8B42-4A46EDD0955E";
paths = (
{
closed = 1;
nodes = (
"564 0 LINE",
"564 134 LINE",
"275 134 LINE",
"275 134 LINE",
"275 390 LINE",
"275 390 LINE",
"359 390 LINE",
"359 380 LINE",
"359 191 LINE",
"569 191 LINE",
"569 475 LINE",
"35 475 LINE",
"35 0 LINE"
);
},
{
closed = 1;
nodes = (
"569 191 LINE",
"569 281 LINE",
"235 281 LINE",
"235 191 LINE"
);
}
);
width = 604;
}
);
leftKerningGroup = o;
leftMetricsKey = o;
rightKerningGroup = e;
unicode = 0065;
},
{
glyphname = eogonek;
lastChange = "2019-04-10 20:35:52 +0000";
layers = (
{
anchors = (
{
name = _ogonek;
position = "{564, 0}";
}
);
components = (
{
name = e;
}
);
layerId = "2BED5241-FEE2-452B-8B42-4A46EDD0955E";
paths = (
{
closed = 1;
nodes = (
"564 -174 LINE",
"564 -58 LINE",
"551 -58 LINE",
"537 -45 LINE",
"537 -24 LINE",
"564 0 LINE",
"455 0 LINE",
"414 -30 LINE",
"414 -111 LINE",
"489 -174 LINE"
);
}
);
width = 604;
}
);
leftKerningGroup = o;
leftMetricsKey = e;
rightKerningGroup = e;
rightMetricsKey = e;
unicode = 0119;
},
{
glyphname = f;
lastChange = "2019-01-02 21:28:37 +0000";
layers = (
{
layerId = "2BED5241-FEE2-452B-8B42-4A46EDD0955E";
paths = (
{
closed = 1;
nodes = (
"283 0 LINE",
"283 552 LINE",
"292 561 LINE",
"388 561 LINE",
"388 670 LINE",
"145 670 LINE",
"44 584 LINE",
"44 0 LINE"
);
},
{
closed = 1;
nodes = (
"366 367 LINE",
"366 475 LINE",
"5 475 LINE",
"5 367 LINE"
);
}
);
width = 388;
}
);
leftKerningGroup = f;
rightKerningGroup = f;
unicode = 0066;
},
{
glyphname = g;
lastChange = "2019-01-02 21:28:37 +0000";
layers = (
{
anchors = (
{
name = top;
position = "{297, 475}";
}
);
components = (
{
name = _part.b;
transform = "{-1, 0, 0, 1, 623, 0}";
}
);
layerId = "2BED5241-FEE2-452B-8B42-4A46EDD0955E";
paths = (
{
closed = 1;
nodes = (
"465 -170 LINE",
"578 -51 LINE",
"578 475 LINE",
"361 475 LINE",
"361 -15 LINE",
"330 -48 LINE",
"65 -48 LINE",
"65 -170 LINE"
);
}
);
width = 618;
}
);
leftKerningGroup = o;
leftMetricsKey = o;
rightKerningGroup = u;
rightMetricsKey = d;
unicode = 0067;
},
{
glyphname = iogonek;
lastChange = "2019-04-10 20:35:33 +0000";
layers = (
{
anchors = (
{
name = _ogonek;
position = "{279, 0}";
}
);
components = (
{
name = idotless;
},
{
name = dotaccentcomb;
}
);
layerId = "2BED5241-FEE2-452B-8B42-4A46EDD0955E";
paths = (
{
closed = 1;
nodes = (
"279 -174 LINE",
"279 -58 LINE",
"266 -58 LINE",
"252 -45 LINE",
"252 -24 LINE",
"279 0 LINE",
"170 0 LINE",
"129 -30 LINE",
"129 -111 LINE",
"204 -174 LINE"
);
}
);
width = 319;
}
);
leftMetricsKey = i;
rightMetricsKey = i;
unicode = 012F;
},
{
glyphname = j;
lastChange = "2019-01-02 21:28:37 +0000";
layers = (
{
components = (
{
name = dotaccentcomb;
transform = "{1, 0, 0, 1, 2, 0}";
}
);
layerId = "2BED5241-FEE2-452B-8B42-4A46EDD0955E";
paths = (
{
closed = 1;
nodes = (
"181 -170 LINE",
"282 -84 LINE",
"282 475 LINE",
"42 475 LINE",
"42 -52 LINE",
"34 -61 LINE",
"-40 -61 LINE",
"-40 -170 LINE"
);
}
);
width = 322;
}
);
leftKerningGroup = j;
rightKerningGroup = j;
rightMetricsKey = d;
unicode = 006A;
},
{
glyphname = jdotless;
lastChange = "2019-01-02 21:28:37 +0000";
layers = (
{
anchors = (
{
name = top;
position = "{162, 475}";
}
);
layerId = "2BED5241-FEE2-452B-8B42-4A46EDD0955E";
paths = (
{
closed = 1;
nodes = (
"181 -170 LINE",
"282 -84 LINE",
"281 475 LINE",
"42 475 LINE",
"42 -52 LINE",
"34 -61 LINE",
"-40 -61 LINE",
"-40 -170 LINE"
);
}
);
width = 322;
}
);
rightMetricsKey = d;
unicode = 0237;
},
{
glyphname = k;
lastChange = "2019-01-02 21:28:37 +0000";
layers = (
{
components = (
{
name = _part.l;
transform = "{1, 0, 0, 1, -1, 0}";
}
);
layerId = "2BED5241-FEE2-452B-8B42-4A46EDD0955E";
paths = (
{
closed = 1;
nodes = (
"257 84 LINE",
"646 475 LINE",
"449 475 LINE",
"259 290 LINE",
"197 347 LINE",
"197 269 LINE"
);
},
{
closed = 1;
nodes = (
"651 0 LINE",
"444 309 LINE",
"270 236 LINE",
"399 0 LINE"
);
}
);
width = 651;
}
);
leftKerningGroup = h;
leftMetricsKey = n;
rightKerningGroup = k;
unicode = 006B;
},
{
glyphname = kgreenlandic;
lastChange = "2019-01-02 21:28:37 +0000";
layers = (
{
layerId = "2BED5241-FEE2-452B-8B42-4A46EDD0955E";
paths = (
{
closed = 1;
nodes = (
"257 84 LINE",
"646 475 LINE",
"449 475 LINE",
"259 290 LINE",
"197 347 LINE",
"197 269 LINE"
);
},
{
closed = 1;
nodes = (
"651 0 LINE",
"444 309 LINE",
"270 236 LINE",
"399 0 LINE"
);
},
{
closed = 1;
nodes = (
"280 0 LINE",
"280 475 LINE",
"40 475 LINE",
"40 0 LINE"
);
}
);
width = 651;
}
);
leftMetricsKey = n;
unicode = 0138;
},
{
glyphname = lslash;
lastChange = "2019-01-02 21:28:37 +0000";
layers = (
{
components = (
{
name = l;
}
);
layerId = "2BED5241-FEE2-452B-8B42-4A46EDD0955E";
paths = (
{
closed = 1;
nodes = (
"341 341 LINE",
"341 484 LINE",
"-21 326 LINE",
"-21 182 LINE"
);
}
);
width = 320;
}
);
leftKerningGroup = l;
unicode = 0142;
},
{
glyphname = eng;
lastChange = "2019-01-02 21:28:37 +0000";
layers = (
{
components = (
{
name = _part.i;
transform = "{1, 0, 0, 1, -1, 0}";
},
{
name = _part.n;
transform = "{1, 0, 0, 1, 243, 0}";
}
);
layerId = "2BED5241-FEE2-452B-8B42-4A46EDD0955E";
paths = (
{
closed = 1;
nodes = (
"507 -170 LINE",
"608 -84 LINE",
"608 234 LINE",
"369 234 LINE",
"369 -52 LINE",
"360 -61 LINE",
"287 -61 LINE",
"287 -170 LINE"
);
}
);
width = 643;
}
);
leftKerningGroup = n;
leftMetricsKey = n;
rightKerningGroup = n;
rightMetricsKey = n;
unicode = 014B;
},
{
glyphname = o;
lastChange = "2019-01-02 21:28:37 +0000";
layers = (
{
anchors = (
{
name = botton;
position = "{317, 0}";
},
{
name = center;
position = "{317, 238}";
},
{
name = horn;
position = "{528, 393}";
},
{
name = ogonek;
position = "{497, 0}";
},
{
name = top;
position = "{317, 475}";
},
{
name = topright;
position = "{614, 475}";
}
);
hints = (
{
origin = "{0, 1}";
type = Corner;
name = _corner.dia_dir;
options = 1;
},
{
origin = "{0, 3}";
type = Corner;
name = _corner.dia_dir;
options = 1;
},
{
origin = "{0, 3}";
scale = "{0.2353, 0.2353}";
type = Corner;
name = _corner.dia_dir;
options = 1;
},
{
origin = "{0, 2}";
type = Corner;
name = _corner.dia_esq;
options = 1;
},
{
origin = "{0, 0}";
type = Corner;
name = _corner.dia_esq;
options = 1;
}
);
layerId = "2BED5241-FEE2-452B-8B42-4A46EDD0955E";
paths = (
{
closed = 1;
nodes = (
"35 475 LINE",
"35 0 LINE",
"598 0 LINE",
"598 475 LINE"
);
},
{
closed = 1;
nodes = (
"275 95 LINE",
"275 380 LINE",
"275 390 LINE",
"359 390 LINE",
"359 380 LINE",
"359 95 LINE",
"359 85 LINE",
"275 85 LINE"
);
}
);
width = 633;
}
);
leftKerningGroup = o;
rightKerningGroup = o;
unicode = 006F;
},
{
glyphname = oslash;
lastChange = "2019-01-02 21:28:37 +0000";
layers = (
{
components = (
{
name = o;
}
);
layerId = "2BED5241-FEE2-452B-8B42-4A46EDD0955E";
paths = (
{
closed = 1;
nodes = (
"454 410 LINE",
"396 445 LINE",
"177 64 LINE",
"235 29 LINE"
);
}
);
width = 633;
}
);
leftKerningGroup = o;
leftMetricsKey = o;
rightKerningGroup = o;
rightMetricsKey = o;
unicode = 00F8;
},
{
glyphname = oe;
lastChange = "2019-01-02 21:28:37 +0000";
layers = (
{
hints = (
{
origin = "{0, 0}";
type = Corner;
name = _corner.dia_esq;
options = 1;
},
{
origin = "{0, 1}";
type = Corner;
name = _corner.dia_dir;
options = 1;
},
{
origin = "{0, 2}";
type = Corner;
name = _corner.dia_esq;
options = 1;
},
{
origin = "{0, 3}";
scale = "{0.6364, 0.6364}";
type = Corner;
name = _corner.dia_dir;
options = 1;
},
{
origin = "{2, 10}";
scale = "{0.6364, 0.6364}";
type = Corner;
name = _corner.dia_dir;
options = 1;
},
{
origin = "{2, 11}";
scale = "{0.6364, 0.6364}";
type = Corner;
name = _corner.dia_esq;
options = 1;
},
{
origin = "{2, 12}";
scale = "{0.6364, 0.6364}";
type = Corner;
name = _corner.dia_dir;
options = 1;
}
);
layerId = "2BED5241-FEE2-452B-8B42-4A46EDD0955E";
paths = (
{
closed = 1;
nodes = (
"35 475 LINE",
"35 0 LINE",
"598 0 LINE",
"598 475 LINE"
);
},
{
closed = 1;
nodes = (
"275 85 LINE",
"275 390 LINE",
"285 390 LINE",
"349 390 LINE",
"359 390 LINE",
"359 85 LINE",
"349 85 LINE",
"285 85 LINE"
);
},
{
closed = 1;
nodes = (
"880 0 LINE",
"880 134 LINE",
"606 134 LINE",
"598 134 LINE",
"598 390 LINE",
"608 390 LINE",
"667 390 LINE",
"677 390 LINE",
"677 191 LINE",
"886 191 LINE",
"886 475 LINE",
"359 475 LINE",
"359 0 LINE"
);
},
{
closed = 1;
nodes = (
"886 191 LINE",
"886 281 LINE",
"558 281 LINE",
"558 191 LINE"
);
}
);
width = 921;
}
);
leftKerningGroup = o;
leftMetricsKey = o;
rightKerningGroup = e;
rightMetricsKey = e;
unicode = 0153;
},
{
glyphname = thorn;
lastChange = "2019-01-02 21:28:37 +0000";
layers = (
{
components = (
{
name = _part.b;
transform = "{1, 0, 0, 1, 19, 0}";
}
);
layerId = "2BED5241-FEE2-452B-8B42-4A46EDD0955E";
paths = (
{
closed = 1;
nodes = (
"280 -170 LINE",
"280 670 LINE",
"40 670 LINE",
"40 -170 LINE"
);
}
);
width = 642;
}
);
leftMetricsKey = p;
rightKerningGroup = o;
rightMetricsKey = p;
unicode = 00FE;
},
{
glyphname = r;
lastChange = "2019-01-02 21:28:37 +0000";
layers = (
{
anchors = (
{
name = botton;
position = "{160, 0}";
},
{
name = top;
position = "{222, 475}";
}
);
components = (
{
name = _part.i;
transform = "{1, 0, 0, 1, -1, 0}";
}
);
layerId = "2BED5241-FEE2-452B-8B42-4A46EDD0955E";
paths = (
{
closed = 1;
nodes = (
"249 296 LINE",
"432 296 LINE",
"432 475 LINE",
"343 475 LINE",
"223 365 LINE",
"223 272 LINE"
);
}
);
width = 442;
}
);
leftKerningGroup = n;
leftMetricsKey = n;
rightKerningGroup = r;
unicode = 0072;
},
{
glyphname = s;
lastChange = "2019-02-18 17:21:36 +0000";
layers = (
{
anchors = (
{
name = botton;
position = "{281, 0}";
},
{
name = top;
position = "{299, 475}";
}
);
layerId = "2BED5241-FEE2-452B-8B42-4A46EDD0955E";
paths = (
{
closed = 1;
nodes = (
"456 0 LINE",
"557 86 LINE",
"557 211 LINE",
"456 297 LINE",
"287 297 LINE",
"277 297 LINE",
"277 348 LINE",
"286 348 LINE",
"518 348 LINE",
"518 475 LINE",
"131 475 LINE",
"30 389 LINE",
"30 264 LINE",
"131 178 LINE",
"315 178 LINE",
"325 178 LINE",
"325 127 LINE",
"316 127 LINE",
"51 127 LINE",
"51 0 LINE"
);
}
);
width = 587;
}
);
leftKerningGroup = o;
rightKerningGroup = o;
unicode = 0073;
},
{
glyphname = germandbls;
lastChange = "2019-01-02 21:28:37 +0000";
layers = (
{
layerId = "2BED5241-FEE2-452B-8B42-4A46EDD0955E";
paths = (
{
closed = 1;
nodes = (
"316 0 LINE",
"316 551 LINE",
"406 551 LINE",
"406 342 LINE",
"547 334 LINE",
"640 413 LINE",
"640 584 LINE",
"539 670 LINE",
"146 670 LINE",
"45 584 LINE",
"45 0 LINE"
);
},
{
closed = 1;
nodes = (
"596 0 LINE",
"697 86 LINE",
"697 263 LINE",
"533 402 LINE",
"349 402 LINE",
"349 283 LINE",
"417 283 LINE",
"418 119 LINE",
"349 119 LINE",
"349 0 LINE"
);
}
);
width = 732;
}
);
leftMetricsKey = H;
rightMetricsKey = B;
unicode = 00DF;
},
{
glyphname = t;
lastChange = "2019-01-02 21:28:37 +0000";
layers = (
{
anchors = (
{
name = botton;
position = "{242, 0}";
},
{
name = top;
position = "{456, 525}";
}
);
layerId = "2BED5241-FEE2-452B-8B42-4A46EDD0955E";
paths = (
{
closed = 1;
nodes = (
"365 0 LINE",
"365 109 LINE",
"292 109 LINE",
"283 118 LINE",
"283 632 LINE",
"132 632 LINE",
"43 460 LINE",
"43 86 LINE",
"145 0 LINE"
);
},
{
closed = 1;
nodes = (
"350 367 LINE",
"350 475 LINE",
"15 475 LINE",
"15 367 LINE"
);
}
);
width = 380;
}
);
leftKerningGroup = t;
rightKerningGroup = t;
unicode = 0074;
},
{
glyphname = tbar;
lastChange = "2019-01-02 21:28:37 +0000";
layers = (
{
components = (
{
name = t;
}
);
layerId = "2BED5241-FEE2-452B-8B42-4A46EDD0955E";
paths = (
{
closed = 1;
nodes = (
"351 214 LINE",
"351 312 LINE",
"16 312 LINE",
"16 214 LINE"
);
}
);
width = 380;
}
);
leftKerningGroup = t;
leftMetricsKey = t;
rightKerningGroup = t;
rightMetricsKey = t;
unicode = 0167;
},
{
glyphname = u;
lastChange = "2019-01-02 21:28:37 +0000";
layers = (
{
anchors = (
{
name = botton;
position = "{309, 0}";
},
{
name = horn;
position = "{576, 393}";
},
{
name = ogonek;
position = "{598, 0}";
},
{
name = top;
position = "{317, 475}";
},
{
name = topright;
position = "{611, 475}";
}
);
components = (
{
name = _part.i;
transform = "{-1, 0, 0, -1, 639, 475}";
}
);
hints = (
{
origin = "{0, 4}";
type = Corner;
name = _corner.dia_dir;
options = 1;
}
);
layerId = "2BED5241-FEE2-452B-8B42-4A46EDD0955E";
paths = (
{
closed = 1;
nodes = (
"303 88 LINE",
"274 88 LINE",
"274 475 LINE",
"35 475 LINE",
"35 0 LINE",
"300 0 LINE",
"401 70 LINE",
"401 161 LINE"
);
}
);
width = 638;
}
);
leftKerningGroup = u;
rightKerningGroup = u;
rightMetricsKey = d;
unicode = 0075;
},
{
glyphname = uogonek;
lastChange = "2019-01-02 21:28:37 +0000";
layers = (
{
components = (
{
name = u;
}
);
layerId = "2BED5241-FEE2-452B-8B42-4A46EDD0955E";
paths = (
{
closed = 1;
nodes = (
"598 -174 LINE",
"598 -58 LINE",
"576 -58 LINE",
"563 -45 LINE",
"563 -24 LINE",
"598 0 LINE",
"598 0 LINE",
"481 0 LINE",
"439 -30 LINE",
"439 -111 LINE",
"514 -174 LINE"
);
}
);
width = 638;
}
);
leftKerningGroup = u;
leftMetricsKey = u;
rightKerningGroup = u;
rightMetricsKey = u;
unicode = 0173;
},
{
glyphname = v;
lastChange = "2019-01-02 21:28:37 +0000";
layers = (
{
layerId = "2BED5241-FEE2-452B-8B42-4A46EDD0955E";
paths = (
{
closed = 1;
nodes = (
"492 0 LINE",
"643 288 LINE",
"643 475 LINE",
"382 475 LINE",
"350 99 LINE",
"312 99 LINE",
"280 475 LINE",
"20 475 LINE",
"20 288 LINE",
"170 0 LINE"
);
}
);
width = 663;
}
);
leftKerningGroup = v;
rightKerningGroup = v;
unicode = 0076;
},
{
glyphname = w;
lastChange = "2019-01-02 21:28:37 +0000";
layers = (
{
anchors = (
{
name = bottom;
position = "{495, 0}";
},
{
name = top;
position = "{495, 475}";
}
);
layerId = "2BED5241-FEE2-452B-8B42-4A46EDD0955E";
paths = (
{
closed = 1;
nodes = (
"467 0 LINE",
"495 73 LINE",
"522 0 LINE",
"833 0 LINE",
"967 288 LINE",
"967 475 LINE",
"712 475 LINE",
"672 99 LINE",
"634 99 LINE",
"594 475 LINE",
"393 475 LINE",
"353 99 LINE",
"315 99 LINE",
"275 475 LINE",
"20 475 LINE",
"20 288 LINE",
"153 0 LINE"
);
}
);
width = 987;
}
);
leftKerningGroup = w;
leftMetricsKey = v;
rightKerningGroup = w;
rightMetricsKey = v;
unicode = 0077;
},
{
glyphname = x;
lastChange = "2019-01-02 21:28:37 +0000";
layers = (
{
layerId = "2BED5241-FEE2-452B-8B42-4A46EDD0955E";
paths = (
{
closed = 1;
nodes = (
"283 0 LINE",
"311 206 LINE",
"349 206 LINE",
"377 0 LINE",
"640 0 LINE",
"640 131 LINE",
"494 287 LINE",
"493 224 LINE",
"640 375 LINE",
"640 475 LINE",
"377 475 LINE",
"349 303 LINE",
"311 303 LINE",
"283 475 LINE",
"20 475 LINE",
"20 375 LINE",
"167 224 LINE",
"166 287 LINE",
"20 131 LINE",
"20 0 LINE"
);
}
);
width = 660;
},
{
associatedMasterId = "2BED5241-FEE2-452B-8B42-4A46EDD0955E";
layerId = "DC11F9F4-2B2B-431C-8BE4-C72EA300D1B3";
name = "Sep 29 16, 12:21";
paths = (
{
closed = 1;
nodes = (
"283 0 LINE",
"311 196 LINE",
"349 196 LINE",
"377 0 LINE",
"640 0 LINE",
"640 131 LINE",
"494 287 LINE",
"493 224 LINE",
"640 375 LINE",
"640 475 LINE",
"377 475 LINE",
"349 313 LINE",
"311 313 LINE",
"283 475 LINE",
"20 475 LINE",
"20 375 LINE",
"167 224 LINE",
"166 287 LINE",
"20 131 LINE",
"20 0 LINE"
);
}
);
width = 660;
}
);
leftKerningGroup = x;
leftMetricsKey = v;
rightKerningGroup = x;
rightMetricsKey = v;
unicode = 0078;
},
{
glyphname = y;
lastChange = "2019-01-02 21:28:37 +0000";
layers = (
{
anchors = (
{
name = bottom;
position = "{316, 0}";
},
{
name = top;
position = "{316, 475}";
}
);
layerId = "2BED5241-FEE2-452B-8B42-4A46EDD0955E";
paths = (
{
closed = 1;
nodes = (
"480 -170 LINE",
"597 -45 LINE",
"597 475 LINE",
"358 475 LINE",
"358 121 LINE",
"303 87 LINE",
"274 87 LINE",
"274 475 LINE",
"35 475 LINE",
"35 92 LINE",
"136 6 LINE",
"314 6 LINE",
"358 36 LINE",
"358 -16 LINE",
"328 -42 LINE",
"57 -42 LINE",
"57 -170 LINE"
);
}
);
width = 637;
}
);
leftKerningGroup = u;
leftMetricsKey = u;
rightKerningGroup = u;
rightMetricsKey = u;
unicode = 0079;
},
{
glyphname = z;
lastChange = "2019-01-02 21:28:37 +0000";
layers = (
{
anchors = (
{
name = top;
position = "{287, 475}";
}
);
layerId = "2BED5241-FEE2-452B-8B42-4A46EDD0955E";
paths = (
{
closed = 1;
nodes = (
"542 0 LINE",
"542 124 LINE",
"238 124 LINE",
"250 63 LINE",
"533 342 LINE",
"533 475 LINE",
"52 475 LINE",
"52 351 LINE",
"321 351 LINE",
"316 413 LINE",
"30 128 LINE",
"30 0 LINE"
);
}
);
width = 572;
}
);
leftKerningGroup = z;
rightKerningGroup = z;
unicode = 007A;
},
{
glyphname = f_f;
lastChange = "2019-02-10 12:57:46 +0000";
layers = (
{
components = (
{
name = f;
}
);
layerId = "2BED5241-FEE2-452B-8B42-4A46EDD0955E";
paths = (
{
closed = 1;
nodes = (
"664 0 LINE",
"664 552 LINE",
"673 561 LINE",
"769 561 LINE",
"769 670 LINE",
"526 670 LINE",
"425 584 LINE",
"425 0 LINE"
);
},
{
closed = 1;
nodes = (
"747 367 LINE",
"747 475 LINE",
"366 475 LINE",
"366 367 LINE"
);
}
);
width = 769;
}
);
leftMetricsKey = f;
rightMetricsKey = f;
},
{
glyphname = f_f_i;
lastChange = "2019-02-10 13:00:57 +0000";
layers = (
{
components = (
{
name = f;
}
);
layerId = "2BED5241-FEE2-452B-8B42-4A46EDD0955E";
paths = (
{
closed = 1;
nodes = (
"747 367 LINE",
"747 475 LINE",
"366 475 LINE",
"366 367 LINE"
);
},
{
closed = 1;
nodes = (
"1048 0 LINE",
"1048 475 LINE",
"809 475 LINE",
"809 0 LINE"
);
},
{
closed = 1;
nodes = (
"664 0 LINE",
"664 552 LINE",
"673 561 LINE",
"939 561 LINE",
"939 670 LINE",
"526 670 LINE",
"425 584 LINE",
"425 0 LINE"
);
}
);
width = 1088;
}
);
leftMetricsKey = f;
rightMetricsKey = i;
},
{
glyphname = fi;
lastChange = "2019-02-10 12:53:04 +0000";
layers = (
{
anchors = (
{
name = top;
position = "{548, 475}";
}
);
layerId = "2BED5241-FEE2-452B-8B42-4A46EDD0955E";
paths = (
{
closed = 1;
nodes = (
"667 0 LINE",
"667 475 LINE",
"428 475 LINE",
"428 0 LINE"
);
},
{
closed = 1;
nodes = (
"283 0 LINE",
"283 552 LINE",
"292 561 LINE",
"558 561 LINE",
"558 670 LINE",
"145 670 LINE",
"44 584 LINE",
"44 0 LINE"
);
},
{
closed = 1;
nodes = (
"366 367 LINE",
"366 475 LINE",
"5 475 LINE",
"5 367 LINE"
);
}
);
width = 707;
}
);
leftMetricsKey = f;
rightMetricsKey = i;
unicode = FB01;
},
{
glyphname = ordfeminine;
lastChange = "2019-01-02 21:28:37 +0000";
layers = (
{
layerId = "2BED5241-FEE2-452B-8B42-4A46EDD0955E";
paths = (
{
closed = 1;
nodes = (
"240 287 LINE",
"286 332 LINE",
"286 287 LINE",
"488 287 LINE",
"488 574 LINE",
"395 670 LINE",
"88 670 LINE",
"88 580 LINE",
"283 580 LINE",
"283 538 LINE",
"115 538 LINE",
"40 461 LINE",
"40 367 LINE",
"119 287 LINE"
);
},
{
closed = 1;
nodes = (
"224 481 LINE",
"283 481 LINE",
"283 402 LINE",
"224 350 LINE"
);
}
);
width = 528;
}
);
unicode = 00AA;
},
{
glyphname = ordmasculine;
lastChange = "2019-01-02 21:28:37 +0000";
layers = (
{
layerId = "2BED5241-FEE2-452B-8B42-4A46EDD0955E";
paths = (
{
closed = 1;
nodes = (
"420 287 LINE",
"503 371 LINE",
"503 586 LINE",
"420 670 LINE",
"123 670 LINE",
"40 586 LINE",
"40 371 LINE",
"123 287 LINE"
);
},
{
closed = 1;
nodes = (
"241 378 LINE",
"241 580 LINE",
"241 584 LINE",
"302 584 LINE",
"302 580 LINE",
"302 378 LINE",
"302 374 LINE",
"241 374 LINE"
);
}
);
width = 543;
}
);
unicode = 00BA;
},
{
glyphname = zero;
lastChange = "2019-02-17 21:36:36 +0000";
layers = (
{
background = {
paths = (
{
closed = 1;
nodes = (
"684 0 LINE",
"684 670 LINE",
"34 670 LINE",
"34 0 LINE"
);
},
{
closed = 1;
nodes = (
"293 531 LINE",
"425 531 LINE",
"425 139 LINE",
"293 139 LINE"
);
}
);
};
hints = (
{
origin = "{0, 0}";
type = Corner;
name = _corner.dia_esq;
options = 1;
},
{
origin = "{0, 1}";
type = Corner;
name = _corner.dia_dir;
options = 1;
},
{
origin = "{0, 2}";
type = Corner;
name = _corner.dia_esq;
options = 1;
},
{
origin = "{0, 3}";
type = Corner;
name = _corner.dia_dir;
options = 1;
}
);
layerId = "2BED5241-FEE2-452B-8B42-4A46EDD0955E";
paths = (
{
closed = 1;
nodes = (
"684 0 LINE",
"684 670 LINE",
"35 670 LINE",
"35 0 LINE"
);
},
{
closed = 1;
nodes = (
"294 531 LINE",
"425 531 LINE",
"425 139 LINE",
"294 139 LINE"
);
}
);
width = 719;
}
);
leftKerningGroup = zero;
leftMetricsKey = O;
rightKerningGroup = zero;
rightMetricsKey = O;
unicode = 0030;
},
{
glyphname = one;
lastChange = "2019-02-09 18:54:57 +0000";
layers = (
{
anchors = (
{
name = topleft;
position = "{59, 670}";
}
);
layerId = "2BED5241-FEE2-452B-8B42-4A46EDD0955E";
paths = (
{
closed = 1;
nodes = (
"337 491 LINE",
"337 670 LINE",
"52 670 LINE",
"52 491 LINE"
);
},
{
closed = 1;
nodes = (
"467 0 LINE",
"467 179 LINE",
"40 179 LINE",
"40 0 LINE"
);
},
{
closed = 1;
nodes = (
"376 0 LINE",
"376 670 LINE",
"130 670 LINE",
"130 0 LINE"
);
}
);
width = 497;
}
);
leftKerningGroup = one;
rightKerningGroup = one;
unicode = 0031;
},
{
glyphname = two;
lastChange = "2019-02-09 13:05:19 +0000";
layers = (
{
hints = (
{
origin = "{0, 4}";
type = Corner;
name = _corner.dia_dir;
options = 1;
},
{
origin = "{0, 5}";
type = Corner;
name = _corner.dia_esq;
options = 1;
}
);
layerId = "2BED5241-FEE2-452B-8B42-4A46EDD0955E";
paths = (
{
closed = 1;
nodes = (
"673 0 LINE",
"673 179 LINE",
"365 179 LINE",
"668 388 LINE",
"668 670 LINE",
"40 670 LINE",
"40 429 LINE",
"295 429 LINE",
"295 551 LINE",
"427 551 LINE",
"427 454 LINE",
"40 202 LINE",
"40 0 LINE"
);
}
);
width = 703;
}
);
leftKerningGroup = two;
rightKerningGroup = two;
unicode = 0032;
},
{
glyphname = three;
lastChange = "2019-01-02 21:28:37 +0000";
layers = (
{
hints = (
{
origin = "{0, 4}";
type = Corner;
name = _corner.dia_dir;
options = 1;
},
{
origin = "{0, 0}";
type = Corner;
name = _corner.dia_esq;
options = 1;
},
{
origin = "{0, 5}";
type = Corner;
name = _corner.dia_esq;
options = 1;
},
{
origin = "{0, 18}";
type = Corner;
name = _corner.dia_dir;
options = 1;
}
);
layerId = "2BED5241-FEE2-452B-8B42-4A46EDD0955E";
paths = (
{
closed = 1;
nodes = (
"686 0 LINE",
"686 269 LINE",
"612 342 LINE",
"686 415 LINE",
"686 670 LINE",
"40 670 LINE",
"40 462 LINE",
"295 462 LINE",
"295 536 LINE",
"425 536 LINE",
"425 415 LINE",
"216 415 LINE",
"216 268 LINE",
"425 268 LINE",
"425 134 LINE",
"295 134 LINE",
"295 210 LINE",
"40 210 LINE",
"40 0 LINE"
);
}
);
width = 721;
}
);
leftKerningGroup = three;
leftMetricsKey = five;
rightKerningGroup = three;
rightMetricsKey = O;
unicode = 0033;
},
{
glyphname = four;
lastChange = "2019-01-02 21:28:37 +0000";
layers = (
{
layerId = "2BED5241-FEE2-452B-8B42-4A46EDD0955E";
paths = (
{
closed = 1;
nodes = (
"643 0 LINE",
"643 84 LINE",
"717 84 LINE",
"717 241 LINE",
"643 241 LINE",
"643 670 LINE",
"376 670 LINE",
"15 241 LINE",
"15 84 LINE",
"385 84 LINE",
"385 0 LINE"
);
},
{
closed = 1;
nodes = (
"254 241 LINE",
"385 415 LINE",
"385 241 LINE",
"254 241 LINE"
);
}
);
width = 742;
}
);
leftKerningGroup = four;
rightKerningGroup = four;
unicode = 0034;
},
{
glyphname = five;
lastChange = "2019-01-02 21:28:37 +0000";
layers = (
{
background = {
hints = (
{
origin = "{0, 0}";
type = Corner;
name = _corner.dia_esq;
options = 1;
},
{
origin = "{0, 4}";
type = Corner;
name = _corner.dia_dir;
options = 1;
}
);
paths = (
{
closed = 1;
nodes = (
"686 0 LINE",
"686 269 LINE",
"612 342 LINE",
"686 415 LINE",
"686 670 LINE",
"151 670 LINE",
"40 583 LINE",
"40 462 LINE",
"295 462 LINE",
"295 536 LINE",
"425 536 LINE",
"425 415 LINE",
"216 415 LINE",
"216 268 LINE",
"425 268 LINE",
"425 134 LINE",
"295 134 LINE",
"295 210 LINE",
"40 210 LINE",
"40 87 LINE",
"139 0 LINE"
);
}
);
};
hints = (
{
origin = "{0, 12}";
type = Corner;
name = _corner.dia_esq;
options = 1;
},
{
origin = "{0, 11}";
type = Corner;
name = _corner.dia_dir;
options = 1;
},
{
origin = "{0, 13}";
type = Corner;
name = _corner.dia_dir;
options = 1;
}
);
layerId = "2BED5241-FEE2-452B-8B42-4A46EDD0955E";
paths = (
{
closed = 1;
nodes = (
"307 424 LINE",
"307 491 LINE",
"659 491 LINE",
"659 670 LINE",
"53 670 LINE",
"53 283 LINE",
"425 283 LINE",
"425 133 LINE",
"295 133 LINE",
"295 217 LINE",
"40 217 LINE",
"40 0 LINE",
"686 0 LINE",
"686 424 LINE"
);
}
);
width = 721;
}
);
leftKerningGroup = five;
rightKerningGroup = five;
rightMetricsKey = O;
unicode = 0035;
},
{
glyphname = six;
lastChange = "2019-01-02 21:28:37 +0000";
layers = (
{
hints = (
{
origin = "{0, 0}";
type = Corner;
name = _corner.dia_esq;
options = 1;
},
{
origin = "{0, 9}";
type = Corner;
name = _corner.dia_esq;
options = 1;
},
{
origin = "{0, 8}";
type = Corner;
name = _corner.dia_dir;
options = 1;
},
{
origin = "{0, 10}";
type = Corner;
name = _corner.dia_dir;
options = 1;
}
);
layerId = "2BED5241-FEE2-452B-8B42-4A46EDD0955E";
paths = (
{
closed = 1;
nodes = (
"685 0 LINE",
"685 328 LINE",
"586 416 LINE",
"293 416 LINE",
"293 532 LINE",
"426 532 LINE",
"426 461 LINE",
"673 461 LINE",
"673 670 LINE",
"35 670 LINE",
"35 0 LINE"
);
},
{
closed = 1;
nodes = (
"293 295 LINE",
"427 295 LINE",
"427 139 LINE",
"293 139 LINE"
);
}
);
width = 720;
}
);
leftKerningGroup = six;
leftMetricsKey = O;
rightKerningGroup = six;
rightMetricsKey = O;
unicode = 0036;
},
{
glyphname = seven;
lastChange = "2019-01-02 21:28:37 +0000";
layers = (
{
layerId = "2BED5241-FEE2-452B-8B42-4A46EDD0955E";
paths = (
{
closed = 1;
nodes = (
"307 0 LINE",
"599 491 LINE",
"599 670 LINE",
"10 670 LINE",
"10 491 LINE",
"323 491 LINE",
"15 0 LINE"
);
}
);
width = 614;
}
);
leftKerningGroup = seven;
rightKerningGroup = seven;
unicode = 0037;
},
{
glyphname = eight;
lastChange = "2019-01-02 21:28:37 +0000";
layers = (
{
background = {
hints = (
{
origin = "{0, 0}";
type = Corner;
name = _corner.dia_esq;
options = 1;
},
{
origin = "{0, 1}";
type = Corner;
name = _corner.dia_dir;
options = 1;
},
{
origin = "{0, 2}";
type = Corner;
name = _corner.dia_esq;
options = 1;
},
{
origin = "{0, 3}";
type = Corner;
name = _corner.dia_dir;
options = 1;
}
);
paths = (
{
closed = 1;
nodes = (
"685 0 LINE",
"685 670 LINE",
"35 670 LINE",
"35 0 LINE"
);
},
{
closed = 1;
nodes = (
"294 531 LINE",
"426 531 LINE",
"426 139 LINE",
"294 139 LINE"
);
}
);
};
hints = (
{
horizontal = 1;
origin = "{0, 13}";
target = "{1, 3}";
type = Stem;
},
{
horizontal = 1;
origin = "{1, 0}";
target = "{2, 3}";
type = Stem;
},
{
horizontal = 1;
origin = "{2, 0}";
target = "{0, 7}";
type = Stem;
},
{
place = "{22.353, 26.824}";
type = Stem;
},
{
place = "{106.118, 26.824}";
type = Stem;
},
{
place = "{17.647, 26.824}";
type = Stem;
},
{
place = "{110.824, 26.824}";
type = Stem;
}
);
layerId = "2BED5241-FEE2-452B-8B42-4A46EDD0955E";
paths = (
{
closed = 1;
nodes = (
"586 0 LINE",
"687 86 LINE",
"687 267 LINE",
"593 347 LINE",
"675 415 LINE",
"675 584 LINE",
"574 670 LINE",
"148 670 LINE",
"47 584 LINE",
"47 415 LINE",
"128 347 LINE",
"35 267 LINE",
"35 86 LINE",
"136 0 LINE"
);
},
{
closed = 1;
nodes = (
"294 288 LINE",
"426 288 LINE",
"426 139 LINE",
"294 139 LINE"
);
},
{
closed = 1;
nodes = (
"294 531 LINE",
"426 531 LINE",
"426 407 LINE",
"294 407 LINE"
);
}
);
width = 722;
}
);
leftKerningGroup = eight;
leftMetricsKey = O;
rightKerningGroup = eight;
rightMetricsKey = O;
unicode = 0038;
},
{
glyphname = nine;
lastChange = "2019-01-02 21:28:37 +0000";
layers = (
{
background = {
hints = (
{
origin = "{0, 0}";
type = Corner;
name = _corner.dia_esq;
options = 1;
},
{
origin = "{0, 1}";
type = Corner;
name = _corner.dia_dir;
options = 1;
},
{
origin = "{0, 2}";
type = Corner;
name = _corner.dia_esq;
options = 1;
},
{
origin = "{0, 3}";
type = Corner;
name = _corner.dia_dir;
options = 1;
}
);
paths = (
{
closed = 1;
nodes = (
"685 0 LINE",
"685 670 LINE",
"35 670 LINE",
"35 0 LINE"
);
},
{
closed = 1;
nodes = (
"294 531 LINE",
"426 531 LINE",
"426 139 LINE",
"294 139 LINE"
);
}
);
};
hints = (
{
origin = "{0, 2}";
type = Corner;
name = _corner.dia_esq;
options = 1;
},
{
origin = "{0, 0}";
type = Corner;
name = _corner.dia_esq;
options = 1;
},
{
origin = "{0, 1}";
type = Corner;
name = _corner.dia_dir;
options = 1;
},
{
origin = "{0, 9}";
type = Corner;
name = _corner.dia_dir;
options = 1;
},
{
origin = "{0, 3}";
type = Corner;
name = _corner.dia_dir;
options = 1;
}
);
layerId = "2BED5241-FEE2-452B-8B42-4A46EDD0955E";
paths = (
{
closed = 1;
nodes = (
"686 0 LINE",
"686 670 LINE",
"35 670 LINE",
"35 254 LINE",
"426 254 LINE",
"426 139 LINE",
"294 139 LINE",
"294 209 LINE",
"45 209 LINE",
"45 0 LINE"
);
},
{
closed = 1;
nodes = (
"294 531 LINE",
"426 531 LINE",
"426 375 LINE",
"294 375 LINE"
);
}
);
width = 721;
}
);
leftKerningGroup = nine;
leftMetricsKey = O;
rightKerningGroup = nine;
rightMetricsKey = O;
unicode = 0039;
},
{
glyphname = onesuperior;
lastChange = "2019-02-10 11:56:24 +0000";
layers = (
{
background = {
paths = (
{
closed = 1;
nodes = (
"198 581 LINE",
"198 670 LINE",
"51 670 LINE",
"51 581 LINE"
);
},
{
closed = 1;
nodes = (
"258 335 LINE",
"258 425 LINE",
"45 425 LINE",
"45 335 LINE"
);
},
{
closed = 1;
nodes = (
"218 335 LINE",
"218 670 LINE",
"85 670 LINE",
"85 335 LINE"
);
}
);
};
layerId = "2BED5241-FEE2-452B-8B42-4A46EDD0955E";
paths = (
{
closed = 1;
nodes = (
"198 581 LINE",
"198 670 LINE",
"46 670 LINE",
"46 581 LINE"
);
},
{
closed = 1;
nodes = (
"263 335 LINE",
"263 425 LINE",
"40 425 LINE",
"40 335 LINE"
);
},
{
closed = 1;
nodes = (
"218 335 LINE",
"218 670 LINE",
"85 670 LINE",
"85 335 LINE"
);
}
);
width = 293;
}
);
leftMetricsKey = one;
rightMetricsKey = one;
unicode = 00B9;
},
{
glyphname = twosuperior;
lastChange = "2019-02-10 11:56:24 +0000";
layers = (
{
layerId = "2BED5241-FEE2-452B-8B42-4A46EDD0955E";
paths = (
{
closed = 1;
nodes = (
"366 335 LINE",
"366 425 LINE",
"210 425 LINE",
"364 530 LINE",
"364 626 LINE",
"311 670 LINE",
"92 670 LINE",
"40 626 LINE",
"40 550 LINE",
"177 550 LINE",
"177 611 LINE",
"233 611 LINE",
"233 561 LINE",
"40 435 LINE",
"40 335 LINE"
);
}
);
width = 396;
}
);
leftMetricsKey = two;
rightMetricsKey = two;
unicode = 00B2;
},
{
glyphname = threesuperior;
lastChange = "2019-02-10 11:56:24 +0000";
layers = (
{
layerId = "2BED5241-FEE2-452B-8B42-4A46EDD0955E";
paths = (
{
closed = 1;
nodes = (
"321 335 LINE",
"373 379 LINE",
"373 469 LINE",
"334 506 LINE",
"373 544 LINE",
"373 626 LINE",
"321 670 LINE",
"93 670 LINE",
"40 626 LINE",
"40 566 LINE",
"178 566 LINE",
"178 603 LINE",
"233 603 LINE",
"233 543 LINE",
"128 543 LINE",
"128 469 LINE",
"233 469 LINE",
"233 402 LINE",
"178 402 LINE",
"178 440 LINE",
"40 440 LINE",
"40 379 LINE",
"93 335 LINE"
);
}
);
width = 408;
}
);
leftMetricsKey = three;
rightMetricsKey = three;
unicode = 00B3;
},
{
glyphname = foursuperior;
lastChange = "2019-02-10 11:56:24 +0000";
layers = (
{
layerId = "2BED5241-FEE2-452B-8B42-4A46EDD0955E";
paths = (
{
closed = 1;
nodes = (
"329 335 LINE",
"329 377 LINE",
"366 377 LINE",
"366 456 LINE",
"329 456 LINE",
"329 670 LINE",
"196 670 LINE",
"15 456 LINE",
"15 377 LINE",
"200 377 LINE",
"200 335 LINE"
);
},
{
closed = 1;
nodes = (
"195 531 LINE",
"195 456 LINE",
"139 456 LINE"
);
}
);
width = 391;
}
);
leftMetricsKey = four;
rightMetricsKey = four;
unicode = 2074;
},
{
glyphname = period;
lastChange = "2019-04-12 11:33:03 +0000";
layers = (
{
layerId = "2BED5241-FEE2-452B-8B42-4A46EDD0955E";
paths = (
{
closed = 1;
nodes = (
"253 0 LINE",
"253 170 LINE",
"55 170 LINE",
"55 0 LINE"
);
}
);
width = 325;
}
);
leftKerningGroup = period;
rightKerningGroup = period;
unicode = 002E;
},
{
glyphname = comma;
lastChange = "2019-04-12 11:36:58 +0000";
layers = (
{
layerId = "2BED5241-FEE2-452B-8B42-4A46EDD0955E";
paths = (
{
closed = 1;
nodes = (
"177 -100 LINE",
"301 169 LINE",
"106 169 LINE",
"60 -100 LINE"
);
}
);
width = 360;
}
);
leftKerningGroup = period;
rightKerningGroup = period;
unicode = 002C;
},
{
glyphname = exclam;
lastChange = "2019-01-02 21:28:37 +0000";
layers = (
{
components = (
{
name = period;
transform = "{1, 0, 0, 1, 14, 0}";
}
);
layerId = "2BED5241-FEE2-452B-8B42-4A46EDD0955E";
paths = (
{
closed = 1;
nodes = (
"271 221 LINE",
"303 670 LINE",
"40 670 LINE",
"71 221 LINE"
);
}
);
width = 343;
}
);
leftKerningGroup = exclam;
leftMetricsKey = n;
rightKerningGroup = exclam;
rightMetricsKey = d;
unicode = 0021;
},
{
glyphname = question;
lastChange = "2019-01-02 21:28:37 +0000";
layers = (
{
components = (
{
name = period;
transform = "{1, 0, 0, 1, 141, 0}";
}
);
layerId = "2BED5241-FEE2-452B-8B42-4A46EDD0955E";
paths = (
{
closed = 1;
nodes = (
"391 213 LINE",
"391 282 LINE",
"477 282 LINE",
"574 358 LINE",
"574 583 LINE",
"474 670 LINE",
"156 670 LINE",
"45 583 LINE",
"45 458 LINE",
"250 458 LINE",
"250 536 LINE",
"360 536 LINE",
"360 426 LINE",
"284 426 LINE",
"206 365 LINE",
"206 213 LINE"
);
}
);
width = 614;
}
);
leftKerningGroup = question;
rightKerningGroup = question;
unicode = 003F;
},
{
glyphname = bullet;
lastChange = "2019-01-02 21:28:37 +0000";
layers = (
{
layerId = "2BED5241-FEE2-452B-8B42-4A46EDD0955E";
paths = (
{
closed = 1;
nodes = (
"274 172 LINE",
"365 264 LINE",
"365 406 LINE",
"274 498 LINE",
"130 498 LINE",
"40 406 LINE",
"40 264 LINE",
"130 172 LINE"
);
}
);
width = 430;
}
);
leftKerningGroup = bullet;
leftMetricsKey = n;
rightKerningGroup = bullet;
unicode = 2022;
},
{
glyphname = asterisk;
lastChange = "2019-01-02 21:28:37 +0000";
layers = (
{
layerId = "2BED5241-FEE2-452B-8B42-4A46EDD0955E";
paths = (
{
closed = 1;
nodes = (
"219 407 LINE",
"267 329 LINE",
"369 405 LINE",
"310 473 LINE",
"398 494 LINE",
"358 615 LINE",
"275 580 LINE",
"282 670 LINE",
"155 670 LINE",
"163 579 LINE",
"79 614 LINE",
"40 494 LINE",
"128 473 LINE",
"70 404 LINE",
"172 329 LINE"
);
}
);
width = 438;
}
);
leftKerningGroup = asterisk;
rightKerningGroup = asterisk;
unicode = 002A;
},
{
glyphname = numbersign;
lastChange = "2019-01-02 21:28:37 +0000";
layers = (
{
layerId = "2BED5241-FEE2-452B-8B42-4A46EDD0955E";
paths = (
{
closed = 1;
nodes = (
"350 0 LINE",
"362 80 LINE",
"416 80 LINE",
"405 0 LINE",
"645 0 LINE",
"656 80 LINE",
"757 80 LINE",
"757 211 LINE",
"674 211 LINE",
"682 265 LINE",
"782 265 LINE",
"782 397 LINE",
"700 397 LINE",
"711 475 LINE",
"471 475 LINE",
"460 397 LINE",
"405 397 LINE",
"416 475 LINE",
"176 475 LINE",
"165 397 LINE",
"64 397 LINE",
"64 265 LINE",
"147 265 LINE",
"140 211 LINE",
"40 211 LINE",
"40 80 LINE",
"122 80 LINE",
"110 0 LINE"
);
},
{
closed = 1;
nodes = (
"387 265 LINE",
"442 265 LINE",
"434 211 LINE",
"380 211 LINE"
);
}
);
width = 822;
}
);
leftKerningGroup = numbersign;
leftMetricsKey = n;
rightKerningGroup = numbersign;
rightMetricsKey = d;
unicode = 0023;
},
{
glyphname = slash;
lastChange = "2019-01-02 21:28:37 +0000";
layers = (
{
layerId = "2BED5241-FEE2-452B-8B42-4A46EDD0955E";
paths = (
{
closed = 1;
nodes = (
"271 -99 LINE",
"552 670 LINE",
"281 670 LINE",
"0 -99 LINE"
);
}
);
width = 552;
}
);
leftKerningGroup = slash;
rightKerningGroup = slash;
unicode = 002F;
},
{
glyphname = backslash;
lastChange = "2019-01-02 21:28:37 +0000";
layers = (
{
layerId = "2BED5241-FEE2-452B-8B42-4A46EDD0955E";
paths = (
{
closed = 1;
nodes = (
"557 -99 LINE",
"276 670 LINE",
"5 670 LINE",
"286 -99 LINE"
);
}
);
width = 562;
}
);
leftKerningGroup = backslash;
rightKerningGroup = backslash;
unicode = 005C;
},
{
glyphname = numbersign.01;
lastChange = "2019-01-02 21:28:37 +0000";
layers = (
{
layerId = "2BED5241-FEE2-452B-8B42-4A46EDD0955E";
paths = (
{
closed = 1;
nodes = (
"359 0 LINE",
"376 120 LINE",
"431 120 LINE",
"414 0 LINE",
"654 0 LINE",
"671 120 LINE",
"802 120 LINE",
"802 309 LINE",
"696 309 LINE",
"704 363 LINE",
"826 363 LINE",
"826 552 LINE",
"730 552 LINE",
"746 670 LINE",
"506 670 LINE",
"490 552 LINE",
"436 552 LINE",
"452 670 LINE",
"212 670 LINE",
"196 552 LINE",
"64 552 LINE",
"64 363 LINE",
"169 363 LINE",
"162 309 LINE",
"40 309 LINE",
"40 120 LINE",
"136 120 LINE",
"119 0 LINE"
);
},
{
closed = 1;
nodes = (
"409 363 LINE",
"464 363 LINE",
"456 309 LINE",
"402 309 LINE"
);
}
);
width = 866;
}
);
leftKerningGroup = numbersign.01;
leftMetricsKey = n;
rightKerningGroup = numbersign.01;
rightMetricsKey = d;
},
{
glyphname = parenleft;
lastChange = "2019-01-02 21:28:37 +0000";
layers = (
{
layerId = "2BED5241-FEE2-452B-8B42-4A46EDD0955E";
paths = (
{
closed = 1;
nodes = (
"365 -170 LINE",
"365 -42 LINE",
"314 -42 LINE",
"241 34 LINE",
"241 595 LINE",
"314 670 LINE",
"365 670 LINE",
"365 799 LINE",
"203 799 LINE",
"40 628 LINE",
"40 1 LINE",
"203 -170 LINE"
);
}
);
width = 385;
}
);
leftKerningGroup = parenleft;
leftMetricsKey = n;
rightKerningGroup = parenleft;
unicode = 0028;
},
{
glyphname = braceleft;
lastChange = "2019-01-02 21:28:37 +0000";
layers = (
{
layerId = "2BED5241-FEE2-452B-8B42-4A46EDD0955E";
paths = (
{
closed = 1;
nodes = (
"415 -170 LINE",
"415 -42 LINE",
"328 -42 LINE",
"321 -34 LINE",
"321 245 LINE",
"252 314 LINE",
"321 384 LINE",
"321 663 LINE",
"328 670 LINE",
"415 670 LINE",
"415 799 LINE",
"221 799 LINE",
"119 688 LINE",
"119 383 LINE",
"111 375 LINE",
"40 375 LINE",
"40 254 LINE",
"111 254 LINE",
"119 246 LINE",
"119 -59 LINE",
"221 -170 LINE"
);
}
);
width = 430;
}
);
leftKerningGroup = braceleft;
leftMetricsKey = n;
rightKerningGroup = braceleft;
unicode = 007B;
},
{
glyphname = bracketleft;
lastChange = "2019-01-02 21:28:37 +0000";
layers = (
{
layerId = "2BED5241-FEE2-452B-8B42-4A46EDD0955E";
paths = (
{
closed = 1;
nodes = (
"333 -170 LINE",
"333 -42 LINE",
"241 -42 LINE",
"241 670 LINE",
"333 670 LINE",
"333 799 LINE",
"40 799 LINE",
"40 -170 LINE"
);
}
);
width = 353;
}
);
leftKerningGroup = bracketleft;
leftMetricsKey = n;
rightKerningGroup = bracketleft;
unicode = 005B;
},
{
glyphname = hyphen;
lastChange = "2019-02-10 20:46:52 +0000";
layers = (
{
layerId = "2BED5241-FEE2-452B-8B42-4A46EDD0955E";
paths = (
{
closed = 1;
nodes = (
"340 163 LINE",
"340 319 LINE",
"40 319 LINE",
"40 163 LINE"
);
}
);
width = 426;
}
);
leftKerningGroup = hyphen;
rightKerningGroup = hyphen;
unicode = 002D;
},
{
glyphname = endash;
lastChange = "2019-02-18 17:23:53 +0000";
layers = (
{
layerId = "2BED5241-FEE2-452B-8B42-4A46EDD0955E";
paths = (
{
closed = 1;
nodes = (
"609 166 LINE",
"609 322 LINE",
"40 322 LINE",
"40 166 LINE"
);
}
);
width = 695;
}
);
leftKerningGroup = hyphen;
leftMetricsKey = hyphen;
rightKerningGroup = hyphen;
rightMetricsKey = hyphen;
unicode = 2013;
},
{
glyphname = emdash;
lastChange = "2019-02-18 17:23:56 +0000";
layers = (
{
layerId = "2BED5241-FEE2-452B-8B42-4A46EDD0955E";
paths = (
{
closed = 1;
nodes = (
"865 166 LINE",
"865 322 LINE",
"40 322 LINE",
"40 166 LINE"
);
}
);
width = 951;
}
);
leftKerningGroup = hyphen;
leftMetricsKey = hyphen;
rightKerningGroup = hyphen;
rightMetricsKey = hyphen;
unicode = 2014;
},
{
glyphname = underscore;
lastChange = "2019-01-02 21:28:37 +0000";
layers = (
{
layerId = "2BED5241-FEE2-452B-8B42-4A46EDD0955E";
paths = (
{
closed = 1;
nodes = (
"585 -188 LINE",
"585 -32 LINE",
"5 -32 LINE",
"5 -188 LINE"
);
}
);
width = 590;
}
);
leftKerningGroup = underscore;
rightKerningGroup = underscore;
unicode = 005F;
},
{
glyphname = quoteright;
lastChange = "2019-01-02 21:28:37 +0000";
layers = (
{
layerId = "2BED5241-FEE2-452B-8B42-4A46EDD0955E";
paths = (
{
closed = 1;
nodes = (
"182 393 LINE",
"306 670 LINE",
"85 670 LINE",
"40 393 LINE"
);
}
);
width = 346;
}
);
leftKerningGroup = quotedblleft;
rightKerningGroup = quotedblleft;
unicode = 2019;
},
{
glyphname = guilsinglleft;
lastChange = "2019-01-02 21:28:37 +0000";
layers = (
{
layerId = "2BED5241-FEE2-452B-8B42-4A46EDD0955E";
paths = (
{
closed = 1;
nodes = (
"431 0 LINE",
"255 238 LINE",
"255 238 LINE",
"431 475 LINE",
"186 475 LINE",
"10 238 LINE",
"10 238 LINE",
"186 0 LINE"
);
}
);
width = 441;
}
);
leftKerningGroup = guillemotleft;
rightKerningGroup = guillemotleft;
unicode = 2039;
},
{
glyphname = quotesingle;
lastChange = "2019-01-02 21:28:37 +0000";
layers = (
{
layerId = "2BED5241-FEE2-452B-8B42-4A46EDD0955E";
paths = (
{
closed = 1;
nodes = (
"201 393 LINE",
"242 670 LINE",
"40 670 LINE",
"82 393 LINE"
);
}
);
width = 282;
}
);
leftKerningGroup = quotesingle;
rightKerningGroup = quotesingle;
unicode = 0027;
},
{
glyphname = "leftanglebracket-math";
lastChange = "2019-01-02 21:28:37 +0000";
layers = (
{
layerId = "2BED5241-FEE2-452B-8B42-4A46EDD0955E";
paths = (
{
closed = 1;
nodes = (
"488 -170 LINE",
"311 315 LINE",
"488 799 LINE",
"217 799 LINE",
"40 315 LINE",
"217 -170 LINE"
);
}
);
width = 503;
}
);
leftMetricsKey = braceleft;
rightMetricsKey = braceleft;
unicode = 27E8;
},
{
glyphname = .notdef;
lastChange = "2019-01-02 21:28:37 +0000";
layers = (
{
layerId = "2BED5241-FEE2-452B-8B42-4A46EDD0955E";
paths = (
{
closed = 1;
nodes = (
"159 -10 LINE",
"159 38 LINE",
"197 75 LINE",
"459 75 LINE",
"497 38 LINE",
"497 -10 LINE",
"616 -10 LINE",
"616 104 LINE",
"517 191 LINE",
"138 191 LINE",
"40 104 LINE",
"40 -10 LINE"
);
},
{
closed = 1;
nodes = (
"283 284 LINE",
"283 475 LINE",
"146 475 LINE",
"146 284 LINE"
);
},
{
closed = 1;
nodes = (
"509 284 LINE",
"509 475 LINE",
"373 475 LINE",
"373 284 LINE"
);
}
);
width = 656;
}
);
leftKerningGroup = .notdef;
leftMetricsKey = n;
rightKerningGroup = .notdef;
rightMetricsKey = d;
},
{
glyphname = cedi;
lastChange = "2019-01-02 21:28:37 +0000";
layers = (
{
components = (
{
name = C;
}
);
layerId = "2BED5241-FEE2-452B-8B42-4A46EDD0955E";
paths = (
{
closed = 1;
nodes = (
"478 -100 LINE",
"478 66 LINE",
"238 66 LINE",
"238 -100 LINE"
);
},
{
closed = 1;
nodes = (
"478 576 LINE",
"478 770 LINE",
"238 770 LINE",
"238 576 LINE"
);
}
);
width = 716;
}
);
leftMetricsKey = C;
rightMetricsKey = C;
unicode = 20B5;
},
{
glyphname = cent;
lastChange = "2019-01-02 21:28:37 +0000";
layers = (
{
hints = (
{
origin = "{0, 12}";
type = Corner;
name = _corner.dia_esq;
options = 1;
},
{
origin = "{0, 13}";
type = Corner;
name = _corner.dia_dir;
options = 1;
}
);
layerId = "2BED5241-FEE2-452B-8B42-4A46EDD0955E";
paths = (
{
closed = 1;
nodes = (
"592 98 LINE",
"592 232 LINE",
"274 232 LINE",
"274 232 LINE",
"274 488 LINE",
"274 488 LINE",
"358 488 LINE",
"358 488 LINE",
"358 367 LINE",
"593 367 LINE",
"593 487 LINE",
"492 573 LINE",
"35 573 LINE",
"35 98 LINE"
);
},
{
closed = 1;
nodes = (
"424 0 LINE",
"424 140 LINE",
"204 140 LINE",
"204 0 LINE"
);
},
{
closed = 1;
nodes = (
"424 529 LINE",
"424 670 LINE",
"204 670 LINE",
"204 529 LINE"
);
}
);
width = 628;
}
);
leftMetricsKey = c;
rightMetricsKey = c;
unicode = 00A2;
},
{
glyphname = colonsign;
lastChange = "2019-01-02 21:28:37 +0000";
layers = (
{
components = (
{
name = C;
}
);
layerId = "2BED5241-FEE2-452B-8B42-4A46EDD0955E";
paths = (
{
closed = 1;
nodes = (
"355 585 LINE",
"366 770 LINE",
"210 770 LINE",
"199 585 LINE"
);
},
{
closed = 1;
nodes = (
"549 585 LINE",
"560 770 LINE",
"404 770 LINE",
"393 585 LINE"
);
},
{
closed = 1;
nodes = (
"314 -99 LINE",
"325 81 LINE",
"169 81 LINE",
"158 -99 LINE"
);
},
{
closed = 1;
nodes = (
"508 -99 LINE",
"519 81 LINE",
"363 81 LINE",
"352 -99 LINE"
);
}
);
width = 716;
}
);
unicode = 20A1;
},
{
glyphname = currency;
lastChange = "2019-01-02 21:28:37 +0000";
layers = (
{
layerId = "2BED5241-FEE2-452B-8B42-4A46EDD0955E";
paths = (
{
closed = 1;
nodes = (
"426 99 LINE",
"544 220 LINE",
"544 329 LINE",
"426 449 LINE",
"184 449 LINE",
"66 329 LINE",
"66 220 LINE",
"184 99 LINE"
);
},
{
closed = 1;
nodes = (
"218 176 LINE",
"143 252 LINE",
"40 150 LINE",
"114 74 LINE"
);
},
{
closed = 1;
nodes = (
"218 372 LINE",
"114 474 LINE",
"40 399 LINE",
"143 296 LINE"
);
},
{
closed = 1;
nodes = (
"273 363 LINE",
"337 363 LINE",
"337 185 LINE",
"273 185 LINE"
);
},
{
closed = 1;
nodes = (
"571 150 LINE",
"467 252 LINE",
"392 176 LINE",
"496 74 LINE"
);
},
{
closed = 1;
nodes = (
"571 399 LINE",
"496 474 LINE",
"392 372 LINE",
"467 296 LINE"
);
}
);
width = 611;
}
);
unicode = 00A4;
},
{
glyphname = dollar;
lastChange = "2019-01-02 21:28:37 +0000";
layers = (
{
components = (
{
name = S;
}
);
layerId = "2BED5241-FEE2-452B-8B42-4A46EDD0955E";
paths = (
{
closed = 1;
nodes = (
"455 -100 LINE",
"455 66 LINE",
"215 66 LINE",
"215 -100 LINE"
);
},
{
closed = 1;
nodes = (
"455 576 LINE",
"455 770 LINE",
"215 770 LINE",
"215 576 LINE"
);
}
);
width = 669;
}
);
leftMetricsKey = S;
rightMetricsKey = S;
unicode = 0024;
},
{
glyphname = euro;
lastChange = "2019-01-02 21:28:37 +0000";
layers = (
{
hints = (
{
origin = "{0, 12}";
type = Corner;
name = _corner.dia_esq;
options = 1;
},
{
origin = "{0, 13}";
type = Corner;
name = _corner.dia_dir;
options = 1;
}
);
layerId = "2BED5241-FEE2-452B-8B42-4A46EDD0955E";
paths = (
{
closed = 1;
nodes = (
"650 0 LINE",
"751 86 LINE",
"751 284 LINE",
"475 284 LINE",
"475 119 LINE",
"364 119 LINE",
"364 551 LINE",
"473 551 LINE",
"473 389 LINE",
"749 389 LINE",
"749 584 LINE",
"648 670 LINE",
"85 670 LINE",
"85 0 LINE"
);
},
{
closed = 1;
nodes = (
"410 215 LINE",
"410 325 LINE",
"35 325 LINE",
"35 215 LINE"
);
},
{
closed = 1;
nodes = (
"438 365 LINE",
"438 475 LINE",
"35 475 LINE",
"35 365 LINE"
);
}
);
width = 786;
}
);
leftMetricsKey = C;
rightMetricsKey = C;
unicode = 20AC;
},
{
glyphname = florin;
lastChange = "2019-01-02 21:28:37 +0000";
layers = (
{
layerId = "2BED5241-FEE2-452B-8B42-4A46EDD0955E";
paths = (
{
closed = 1;
nodes = (
"183 -102 LINE",
"284 -16 LINE",
"284 552 LINE",
"293 561 LINE",
"389 561 LINE",
"389 670 LINE",
"146 670 LINE",
"45 584 LINE",
"45 16 LINE",
"36 7 LINE",
"-60 7 LINE",
"-60 -102 LINE"
);
},
{
closed = 1;
nodes = (
"367 367 LINE",
"367 475 LINE",
"6 475 LINE",
"6 367 LINE"
);
}
);
width = 389;
}
);
rightMetricsKey = f;
unicode = 0192;
},
{
glyphname = guarani;
lastChange = "2019-01-02 21:28:37 +0000";
layers = (
{
anchors = (
{
name = botton;
position = "{354, 0}";
},
{
name = top;
position = "{360, 670}";
}
);
hints = (
{
origin = "{2, 12}";
type = Corner;
name = _corner.dia_dir;
options = 1;
},
{
origin = "{2, 11}";
type = Corner;
name = _corner.dia_esq;
options = 1;
}
);
layerId = "2BED5241-FEE2-452B-8B42-4A46EDD0955E";
paths = (
{
closed = 1;
nodes = (
"484 -100 LINE",
"484 66 LINE",
"244 66 LINE",
"244 -100 LINE"
);
},
{
closed = 1;
nodes = (
"484 576 LINE",
"484 770 LINE",
"244 770 LINE",
"244 576 LINE"
);
},
{
closed = 1;
nodes = (
"425 0 LINE",
"544 100 LINE",
"497 234 LINE",
"385 139 LINE",
"294 139 LINE",
"294 531 LINE",
"426 531 LINE",
"426 433 LINE",
"692 432 LINE",
"692 584 LINE",
"591 670 LINE",
"35 670 LINE",
"35 0 LINE"
);
},
{
closed = 1;
nodes = (
"692 0 LINE",
"692 367 LINE",
"402 367 LINE",
"402 228 LINE",
"489 228 LINE",
"489 146 LINE",
"514 127 LINE",
"514 0 LINE"
);
}
);
width = 737;
}
);
leftMetricsKey = G;
rightMetricsKey = G;
unicode = 20B2;
},
{
glyphname = kip;
lastChange = "2019-01-02 21:28:37 +0000";
layers = (
{
anchors = (
{
name = _center;
position = "{177, 125}";
}
);
components = (
{
name = _part.H;
transform = "{1, 0, 0, 1, -10, 0}";
}
);
layerId = "2BED5241-FEE2-452B-8B42-4A46EDD0955E";
paths = (
{
closed = 1;
nodes = (
"708 297 LINE",
"708 433 LINE",
"5 433 LINE",
"5 297 LINE"
);
},
{
closed = 1;
nodes = (
"751 670 LINE",
"457 670 LINE",
"282 400 LINE",
"301 375 LINE",
"418 216 LINE"
);
},
{
closed = 1;
nodes = (
"745 0 LINE",
"434 509 LINE",
"258 408 LINE",
"260 370 LINE",
"454 0 LINE"
);
}
);
width = 751;
}
);
unicode = 20AD;
},
{
glyphname = lira;
lastChange = "2019-01-02 21:28:37 +0000";
layers = (
{
hints = (
{
origin = "{0, 7}";
type = Corner;
name = _corner.dia_esq;
options = 1;
}
);
layerId = "2BED5241-FEE2-452B-8B42-4A46EDD0955E";
paths = (
{
closed = 1;
nodes = (
"344 0 LINE",
"344 531 LINE",
"423 531 LINE",
"423 409 LINE",
"689 409 LINE",
"689 584 LINE",
"588 670 LINE",
"85 670 LINE",
"85 0 LINE"
);
},
{
closed = 1;
nodes = (
"401 215 LINE",
"401 325 LINE",
"36 325 LINE",
"36 215 LINE"
);
},
{
closed = 1;
nodes = (
"401 365 LINE",
"401 475 LINE",
"36 475 LINE",
"36 365 LINE"
);
},
{
closed = 1;
nodes = (
"689 0 LINE",
"689 189 LINE",
"35 189 LINE",
"35 0 LINE"
);
}
);
width = 729;
}
);
leftMetricsKey = euro;
rightMetricsKey = E;
unicode = 20A4;
},
{
glyphname = liraTurkish;
lastChange = "2019-01-02 21:28:37 +0000";
layers = (
{
components = (
{
name = _part.H;
transform = "{1, 0, 0, 1, 30, 0}";
}
);
hints = (
{
origin = "{0, 0}";
type = Corner;
name = _corner.dia_esq;
options = 1;
}
);
layerId = "2BED5241-FEE2-452B-8B42-4A46EDD0955E";
paths = (
{
closed = 1;
nodes = (
"675 0 LINE",
"675 285 LINE",
"416 285 LINE",
"416 139 LINE",
"284 139 LINE",
"284 0 LINE"
);
},
{
closed = 1;
nodes = (
"452 339 LINE",
"452 464 LINE",
"35 314 LINE",
"35 189 LINE"
);
},
{
closed = 1;
nodes = (
"452 504 LINE",
"452 629 LINE",
"35 479 LINE",
"35 354 LINE"
);
}
);
width = 710;
}
);
leftMetricsKey = euro;
rightMetricsKey = O;
unicode = 20BA;
},
{
glyphname = manat;
lastChange = "2019-01-02 21:28:37 +0000";
layers = (
{
background = {
paths = (
{
closed = 1;
nodes = (
"584 0 LINE",
"685 86 LINE",
"685 584 LINE",
"584 670 LINE",
"136 670 LINE",
"35 584 LINE",
"35 86 LINE",
"136 0 LINE"
);
},
{
closed = 1;
nodes = (
"294 531 LINE",
"426 531 LINE",
"426 139 LINE",
"294 139 LINE"
);
}
);
};
layerId = "2BED5241-FEE2-452B-8B42-4A46EDD0955E";
paths = (
{
closed = 1;
nodes = (
"294 0 LINE",
"294 431 LINE",
"678 431 LINE",
"678 0 LINE",
"937 0 LINE",
"937 484 LINE",
"836 570 LINE",
"136 570 LINE",
"35 484 LINE",
"35 0 LINE"
);
},
{
closed = 1;
nodes = (
"606 0 LINE",
"606 670 LINE",
"366 670 LINE",
"366 0 LINE"
);
}
);
width = 972;
}
);
leftMetricsKey = O;
rightMetricsKey = O;
unicode = 20BC;
},
{
glyphname = naira;
lastChange = "2019-01-02 21:28:37 +0000";
layers = (
{
components = (
{
name = N;
transform = "{1, 0, 0, 1, 40, 0}";
}
);
layerId = "2BED5241-FEE2-452B-8B42-4A46EDD0955E";
paths = (
{
closed = 1;
nodes = (
"196 215 LINE",
"196 325 LINE",
"35 325 LINE",
"35 215 LINE"
);
},
{
closed = 1;
nodes = (
"196 365 LINE",
"196 475 LINE",
"35 475 LINE",
"35 365 LINE"
);
},
{
closed = 1;
nodes = (
"749 215 LINE",
"749 325 LINE",
"535 325 LINE",
"535 215 LINE"
);
},
{
closed = 1;
nodes = (
"749 365 LINE",
"749 475 LINE",
"535 475 LINE",
"535 365 LINE"
);
}
);
width = 784;
}
);
leftMetricsKey = euro;
rightMetricsKey = euro;
unicode = 20A6;
},
{
glyphname = peseta;
lastChange = "2019-01-02 21:28:37 +0000";
layers = (
{
components = (
{
name = P;
transform = "{1, 0, 0, 1, 40, 0}";
}
);
layerId = "2BED5241-FEE2-452B-8B42-4A46EDD0955E";
paths = (
{
closed = 1;
nodes = (
"196 373 LINE",
"196 483 LINE",
"35 483 LINE",
"35 373 LINE"
);
},
{
closed = 1;
nodes = (
"771 373 LINE",
"771 483 LINE",
"557 483 LINE",
"557 373 LINE"
);
}
);
width = 786;
}
);
leftMetricsKey = euro;
rightMetricsKey = P;
unicode = 20A7;
},
{
glyphname = peso;
lastChange = "2019-01-02 21:28:37 +0000";
layers = (
{
components = (
{
name = P;
transform = "{1, 0, 0, 1, 40, 0}";
}
);
layerId = "2BED5241-FEE2-452B-8B42-4A46EDD0955E";
paths = (
{
closed = 1;
nodes = (
"196 298 LINE",
"196 408 LINE",
"35 408 LINE",
"35 298 LINE"
);
},
{
closed = 1;
nodes = (
"196 448 LINE",
"196 558 LINE",
"35 558 LINE",
"35 448 LINE"
);
},
{
closed = 1;
nodes = (
"771 298 LINE",
"771 408 LINE",
"557 408 LINE",
"557 298 LINE"
);
},
{
closed = 1;
nodes = (
"771 448 LINE",
"771 558 LINE",
"557 558 LINE",
"557 448 LINE"
);
}
);
width = 786;
}
);
leftMetricsKey = euro;
rightMetricsKey = P;
unicode = 20B1;
},
{
glyphname = ruble;
lastChange = "2019-01-02 21:28:37 +0000";
layers = (
{
components = (
{
name = P;
}
);
guideLines = (
{
position = "{580, 186}";
},
{
position = "{432, 325}";
}
);
layerId = "2BED5241-FEE2-452B-8B42-4A46EDD0955E";
paths = (
{
closed = 1;
nodes = (
"568 57 LINE",
"568 167 LINE",
"-5 167 LINE",
"-5 57 LINE"
);
},
{
closed = 1;
nodes = (
"156 207 LINE",
"156 317 LINE",
"-5 317 LINE",
"-5 207 LINE"
);
}
);
width = 696;
}
);
unicode = 20BD;
},
{
glyphname = rupeeIndian;
lastChange = "2019-01-02 21:28:37 +0000";
layers = (
{
hints = (
{
origin = "{0, 0}";
type = Corner;
name = _corner.dia_esq;
options = 1;
},
{
origin = "{0, 1}";
type = Corner;
name = _corner.dia_dir;
options = 1;
}
);
layerId = "2BED5241-FEE2-452B-8B42-4A46EDD0955E";
paths = (
{
closed = 1;
nodes = (
"530 207 LINE",
"530 670 LINE",
"45 670 LINE",
"45 531 LINE",
"281 531 LINE",
"281 346 LINE",
"45 346 LINE",
"45 207 LINE"
);
},
{
closed = 1;
nodes = (
"560 0 LINE",
"350 207 LINE",
"45 207 LINE",
"245 0 LINE"
);
},
{
closed = 1;
nodes = (
"580 384 LINE",
"580 493 LINE",
"45 493 LINE",
"45 384 LINE"
);
},
{
closed = 1;
nodes = (
"580 561 LINE",
"580 670 LINE",
"45 670 LINE",
"45 561 LINE"
);
}
);
width = 590;
}
);
leftMetricsKey = H;
rightMetricsKey = R;
unicode = 20B9;
},
{
glyphname = sterling;
lastChange = "2019-01-02 21:28:37 +0000";
layers = (
{
layerId = "2BED5241-FEE2-452B-8B42-4A46EDD0955E";
paths = (
{
closed = 1;
nodes = (
"570 272 LINE",
"570 396 LINE",
"35 396 LINE",
"35 272 LINE"
);
},
{
closed = 1;
nodes = (
"729 0 LINE",
"729 175 LINE",
"35 175 LINE",
"35 0 LINE"
);
},
{
closed = 1;
nodes = (
"389 74 LINE",
"389 551 LINE",
"478 551 LINE",
"478 475 LINE",
"734 475 LINE",
"734 584 LINE",
"633 670 LINE",
"211 670 LINE",
"110 584 LINE",
"110 74 LINE"
);
}
);
width = 774;
}
);
leftMetricsKey = C;
rightMetricsKey = E;
unicode = 00A3;
},
{
glyphname = won;
lastChange = "2019-01-02 21:28:37 +0000";
layers = (
{
components = (
{
name = W;
transform = "{1, 0, 0, 1, 40, 0}";
}
);
layerId = "2BED5241-FEE2-452B-8B42-4A46EDD0955E";
paths = (
{
closed = 1;
nodes = (
"196 298 LINE",
"196 408 LINE",
"35 408 LINE",
"35 298 LINE"
);
},
{
closed = 1;
nodes = (
"196 448 LINE",
"196 558 LINE",
"35 558 LINE",
"35 448 LINE"
);
},
{
closed = 1;
nodes = (
"1086 298 LINE",
"1086 408 LINE",
"925 408 LINE",
"925 298 LINE"
);
},
{
closed = 1;
nodes = (
"1086 448 LINE",
"1086 558 LINE",
"925 558 LINE",
"925 448 LINE"
);
}
);
width = 1121;
}
);
leftMetricsKey = euro;
unicode = 20A9;
},
{
glyphname = yen;
lastChange = "2019-01-02 21:28:37 +0000";
layers = (
{
layerId = "2BED5241-FEE2-452B-8B42-4A46EDD0955E";
paths = (
{
closed = 1;
nodes = (
"472 0 LINE",
"472 246 LINE",
"593 350 LINE",
"678 670 LINE",
"421 670 LINE",
"367 388 LINE",
"327 388 LINE",
"272 670 LINE",
"15 670 LINE",
"100 350 LINE",
"221 247 LINE",
"221 0 LINE"
);
},
{
closed = 1;
nodes = (
"623 60 LINE",
"623 157 LINE",
"71 157 LINE",
"71 60 LINE"
);
},
{
closed = 1;
nodes = (
"623 191 LINE",
"623 288 LINE",
"71 288 LINE",
"71 191 LINE"
);
}
);
width = 693;
}
);
leftMetricsKey = Y;
rightMetricsKey = Y;
unicode = 00A5;
},
{
glyphname = commercialMinusSign;
lastChange = "2019-01-02 21:28:37 +0000";
layers = (
{
layerId = "2BED5241-FEE2-452B-8B42-4A46EDD0955E";
paths = (
{
closed = 1;
nodes = (
"546 604 LINE",
"416 681 LINE",
"70 66 LINE",
"200 -11 LINE"
);
},
{
closed = 1;
nodes = (
"245 493 LINE",
"245 670 LINE",
"40 670 LINE",
"40 493 LINE"
);
},
{
closed = 1;
nodes = (
"576 0 LINE",
"576 177 LINE",
"371 177 LINE",
"371 0 LINE"
);
}
);
width = 616;
}
);
leftMetricsKey = percent;
rightMetricsKey = percent;
unicode = 2052;
},
{
glyphname = plus;
lastChange = "2019-02-10 20:00:28 +0000";
layers = (
{
layerId = "2BED5241-FEE2-452B-8B42-4A46EDD0955E";
paths = (
{
closed = 1;
nodes = (
"440 257 LINE",
"440 413 LINE",
"40 413 LINE",
"40 257 LINE"
);
},
{
closed = 1;
nodes = (
"318 135 LINE",
"318 535 LINE",
"163 535 LINE",
"163 135 LINE"
);
}
);
width = 480;
}
);
unicode = 002B;
},
{
glyphname = minus;
lastChange = "2019-02-10 20:00:40 +0000";
layers = (
{
layerId = "2BED5241-FEE2-452B-8B42-4A46EDD0955E";
paths = (
{
closed = 1;
nodes = (
"440 257 LINE",
"440 413 LINE",
"40 413 LINE",
"40 257 LINE"
);
}
);
width = 480;
}
);
leftMetricsKey = plus;
rightMetricsKey = plus;
unicode = 2212;
},
{
glyphname = multiply;
lastChange = "2019-01-02 21:28:37 +0000";
layers = (
{
layerId = "2BED5241-FEE2-452B-8B42-4A46EDD0955E";
paths = (
{
closed = 1;
nodes = (
"40 488 LINE",
"151 599 LINE",
"575 175 LINE",
"464 64 LINE"
);
},
{
closed = 1;
nodes = (
"46 180 LINE",
"464 599 LINE",
"575 488 LINE",
"156 70 LINE"
);
}
);
width = 615;
}
);
leftMetricsKey = plus;
rightMetricsKey = plus;
unicode = 00D7;
},
{
glyphname = divide;
lastChange = "2019-01-02 21:28:37 +0000";
layers = (
{
layerId = "2BED5241-FEE2-452B-8B42-4A46EDD0955E";
paths = (
{
closed = 1;
nodes = (
"520 257 LINE",
"520 413 LINE",
"40 413 LINE",
"40 257 LINE"
);
},
{
closed = 1;
nodes = (
"358 80 LINE",
"358 202 LINE",
"203 202 LINE",
"203 80 LINE"
);
},
{
closed = 1;
nodes = (
"358 468 LINE",
"358 590 LINE",
"203 590 LINE",
"203 468 LINE"
);
}
);
width = 560;
}
);
leftMetricsKey = plus;
rightMetricsKey = plus;
unicode = 00F7;
},
{
glyphname = equal;
lastChange = "2019-01-02 21:28:37 +0000";
layers = (
{
layerId = "2BED5241-FEE2-452B-8B42-4A46EDD0955E";
paths = (
{
closed = 1;
nodes = (
"520 146 LINE",
"520 302 LINE",
"40 302 LINE",
"40 146 LINE"
);
},
{
closed = 1;
nodes = (
"520 368 LINE",
"520 524 LINE",
"40 524 LINE",
"40 368 LINE"
);
}
);
width = 560;
}
);
leftMetricsKey = plus;
rightMetricsKey = plus;
unicode = 003D;
},
{
glyphname = notequal;
lastChange = "2019-01-02 21:28:37 +0000";
layers = (
{
components = (
{
name = equal;
}
);
layerId = "2BED5241-FEE2-452B-8B42-4A46EDD0955E";
paths = (
{
closed = 1;
nodes = (
"513 572 LINE",
"413 640 LINE",
"48 99 LINE",
"148 31 LINE"
);
}
);
width = 560;
}
);
leftMetricsKey = plus;
rightMetricsKey = plus;
unicode = 2260;
},
{
glyphname = greater;
lastChange = "2019-01-02 21:28:37 +0000";
layers = (
{
layerId = "2BED5241-FEE2-452B-8B42-4A46EDD0955E";
paths = (
{
closed = 1;
nodes = (
"395 335 LINE",
"151 579 LINE",
"40 468 LINE",
"174 335 LINE",
"40 202 LINE",
"151 91 LINE"
);
}
);
width = 435;
}
);
leftMetricsKey = plus;
rightMetricsKey = plus;
unicode = 003E;
},
{
glyphname = greaterequal;
lastChange = "2019-01-02 21:28:37 +0000";
layers = (
{
components = (
{
name = greater;
}
);
layerId = "2BED5241-FEE2-452B-8B42-4A46EDD0955E";
paths = (
{
closed = 1;
nodes = (
"395 -20 LINE",
"395 136 LINE",
"40 136 LINE",
"40 -20 LINE"
);
}
);
width = 435;
}
);
unicode = 2265;
},
{
glyphname = lessequal;
lastChange = "2019-01-02 21:28:37 +0000";
layers = (
{
components = (
{
name = greater;
transform = "{-1, 0, 0, 1, 435, 0}";
}
);
layerId = "2BED5241-FEE2-452B-8B42-4A46EDD0955E";
paths = (
{
closed = 1;
nodes = (
"395 -20 LINE",
"395 136 LINE",
"40 136 LINE",
"40 -20 LINE"
);
}
);
width = 435;
}
);
unicode = 2264;
},
{
glyphname = asciitilde;
lastChange = "2019-01-02 21:28:37 +0000";
layers = (
{
layerId = "2BED5241-FEE2-452B-8B42-4A46EDD0955E";
paths = (
{
closed = 1;
nodes = (
"247 266 LINE",
"247 298 LINE",
"247 314 LINE",
"287 314 LINE",
"287 262 LINE",
"545 262 LINE",
"620 339 LINE",
"621 413 LINE",
"414 413 LINE",
"414 381 LINE",
"414 365 LINE",
"374 365 LINE",
"374 417 LINE",
"116 417 LINE",
"41 340 LINE",
"40 266 LINE"
);
}
);
width = 661;
}
);
leftKerningGroup = asciitilde;
leftMetricsKey = n;
rightKerningGroup = asciitilde;
rightMetricsKey = d;
unicode = 007E;
},
{
glyphname = logicalnot;
lastChange = "2019-02-10 20:52:08 +0000";
layers = (
{
layerId = "2BED5241-FEE2-452B-8B42-4A46EDD0955E";
paths = (
{
closed = 1;
nodes = (
"490 319 LINE",
"490 475 LINE",
"40 475 LINE",
"40 319 LINE"
);
},
{
closed = 1;
nodes = (
"334 250 LINE",
"490 250 LINE",
"490 475 LINE",
"334 475 LINE"
);
}
);
width = 530;
}
);
unicode = 00AC;
},
{
glyphname = asciicircum;
lastChange = "2019-01-02 21:28:37 +0000";
layers = (
{
layerId = "2BED5241-FEE2-452B-8B42-4A46EDD0955E";
paths = (
{
closed = 1;
nodes = (
"207 475 LINE",
"315 581 LINE",
"315 581 LINE",
"422 475 LINE",
"589 475 LINE",
"442 670 LINE",
"187 670 LINE",
"40 475 LINE"
);
}
);
width = 629;
}
);
leftKerningGroup = asciicircum;
leftMetricsKey = n;
rightKerningGroup = asciicircum;
rightMetricsKey = d;
unicode = 005E;
},
{
glyphname = percent;
lastChange = "2019-01-02 21:28:37 +0000";
layers = (
{
layerId = "2BED5241-FEE2-452B-8B42-4A46EDD0955E";
paths = (
{
closed = 1;
nodes = (
"846 556 LINE",
"744 667 LINE",
"106 115 LINE",
"208 4 LINE"
);
},
{
closed = 1;
nodes = (
"293 318 LINE",
"396 407 LINE",
"396 581 LINE",
"293 670 LINE",
"144 670 LINE",
"40 581 LINE",
"40 407 LINE",
"144 318 LINE"
);
},
{
closed = 1;
nodes = (
"183 531 LINE",
"254 531 LINE",
"254 457 LINE",
"183 457 LINE"
);
},
{
closed = 1;
nodes = (
"808 0 LINE",
"912 89 LINE",
"912 263 LINE",
"808 352 LINE",
"659 352 LINE",
"556 263 LINE",
"556 89 LINE",
"659 0 LINE"
);
},
{
closed = 1;
nodes = (
"698 213 LINE",
"770 213 LINE",
"770 139 LINE",
"698 139 LINE"
);
}
);
width = 952;
}
);
leftMetricsKey = plus;
rightMetricsKey = plus;
unicode = 0025;
},
{
glyphname = perthousand;
lastChange = "2019-01-02 21:28:37 +0000";
layers = (
{
components = (
{
name = percent;
}
);
layerId = "2BED5241-FEE2-452B-8B42-4A46EDD0955E";
paths = (
{
closed = 1;
nodes = (
"1194 0 LINE",
"1298 89 LINE",
"1298 263 LINE",
"1194 352 LINE",
"1045 352 LINE",
"942 263 LINE",
"942 89 LINE",
"1045 0 LINE"
);
},
{
closed = 1;
nodes = (
"1084 213 LINE",
"1156 213 LINE",
"1156 139 LINE",
"1084 139 LINE"
);
}
);
width = 1338;
}
);
leftMetricsKey = percent;
rightMetricsKey = percent;
unicode = 2030;
},
{
glyphname = lozenge;
lastChange = "2019-01-02 21:28:37 +0000";
layers = (
{
layerId = "2BED5241-FEE2-452B-8B42-4A46EDD0955E";
paths = (
{
closed = 1;
nodes = (
"453 0 LINE",
"669 330 LINE",
"669 340 LINE",
"453 670 LINE",
"251 670 LINE",
"35 340 LINE",
"35 330 LINE",
"251 0 LINE"
);
},
{
closed = 1;
nodes = (
"274 335 LINE",
"274 335 LINE",
"352 454 LINE",
"352 454 LINE",
"430 335 LINE",
"430 335 LINE",
"352 216 LINE",
"352 216 LINE"
);
}
);
width = 704;
}
);
leftKerningGroup = lozenge;
leftMetricsKey = V;
rightKerningGroup = lozenge;
rightMetricsKey = V;
unicode = 25CA;
},
{
glyphname = at;
lastChange = "2019-01-02 21:28:37 +0000";
layers = (
{
hints = (
{
horizontal = 1;
origin = "{0, 28}";
target = "{0, 2}";
type = Stem;
},
{
horizontal = 1;
origin = "{0, 17}";
target = "{1, 3}";
type = Stem;
},
{
horizontal = 1;
origin = "{1, 0}";
target = "{0, 14}";
type = Stem;
},
{
horizontal = 1;
origin = "{0, 5}";
target = "{0, 25}";
type = Stem;
},
{
place = "{17.647, 25.882}";
type = Stem;
},
{
place = "{67.059, 25.882}";
type = Stem;
},
{
place = "{137.412, 25.882}";
type = Stem;
},
{
place = "{190.588, 25.882}";
type = Stem;
}
);
layerId = "2BED5241-FEE2-452B-8B42-4A46EDD0955E";
paths = (
{
closed = 1;
nodes = (
"1096 -170 LINE",
"1096 -42 LINE",
"368 -42 LINE",
"244 64 LINE",
"244 426 LINE",
"368 532 LINE",
"855 531 LINE",
"915 481 LINE",
"915 134 LINE",
"855 134 LINE",
"855 475 LINE",
"615 475 LINE",
"615 436 LINE",
"564 475 LINE",
"401 475 LINE",
"300 389 LINE",
"300 101 LINE",
"401 15 LINE",
"567 15 LINE",
"619 55 LINE",
"637 15 LINE",
"1023 15 LINE",
"1124 101 LINE",
"1124 518 LINE",
"947 670 LINE",
"241 670 LINE",
"35 495 LINE",
"35 5 LINE",
"241 -170 LINE"
);
},
{
closed = 1;
nodes = (
"539 386 LINE",
"615 386 LINE",
"615 104 LINE",
"539 104 LINE"
);
}
);
width = 1159;
}
);
leftKerningGroup = at;
leftMetricsKey = O;
rightKerningGroup = at;
rightMetricsKey = O;
unicode = 0040;
},
{
glyphname = ampersand;
lastChange = "2019-01-02 21:28:37 +0000";
layers = (
{
layerId = "2BED5241-FEE2-452B-8B42-4A46EDD0955E";
paths = (
{
closed = 1;
nodes = (
"828 109 LINE",
"772 174 LINE",
"829 225 LINE",
"703 377 LINE",
"635 316 LINE",
"578 378 LINE",
"674 459 LINE",
"674 584 LINE",
"573 670 LINE",
"182 670 LINE",
"81 584 LINE",
"81 448 LINE",
"186 359 LINE",
"45 238 LINE",
"45 86 LINE",
"146 0 LINE",
"569 0 LINE",
"621 47 LINE",
"677 -16 LINE"
);
},
{
closed = 1;
nodes = (
"337 121 LINE",
"337 187 LINE",
"406 245 LINE",
"474 172 LINE",
"404 109 LINE",
"348 109 LINE"
);
},
{
closed = 1;
nodes = (
"348 452 LINE",
"348 554 LINE",
"423 554 LINE",
"423 452 LINE"
);
}
);
width = 864;
}
);
leftKerningGroup = ampersand;
leftMetricsKey = H;
rightKerningGroup = ampersand;
rightMetricsKey = O;
unicode = 0026;
},
{
glyphname = paragraph;
lastChange = "2019-01-02 21:28:37 +0000";
layers = (
{
layerId = "2BED5241-FEE2-452B-8B42-4A46EDD0955E";
paths = (
{
closed = 1;
nodes = (
"541 -113 LINE",
"541 541 LINE",
"591 541 LINE",
"591 -113 LINE",
"824 -113 LINE",
"824 541 LINE",
"892 541 LINE",
"892 669 LINE",
"162 669 LINE",
"35 545 LINE",
"35 293 LINE",
"162 169 LINE",
"308 169 LINE",
"308 -113 LINE"
);
}
);
width = 927;
}
);
leftKerningGroup = paragraph;
leftMetricsKey = d;
rightKerningGroup = paragraph;
rightMetricsKey = h;
unicode = 00B6;
},
{
glyphname = section;
lastChange = "2019-01-02 21:28:37 +0000";
layers = (
{
layerId = "2BED5241-FEE2-452B-8B42-4A46EDD0955E";
paths = (
{
closed = 1;
nodes = (
"506 -60 LINE",
"606 27 LINE",
"606 124 LINE",
"544 176 LINE",
"606 230 LINE",
"606 366 LINE",
"474 479 LINE",
"322 479 LINE",
"322 542 LINE",
"570 542 LINE",
"570 670 LINE",
"174 670 LINE",
"75 583 LINE",
"75 487 LINE",
"137 435 LINE",
"75 382 LINE",
"75 242 LINE",
"207 132 LINE",
"374 132 LINE",
"374 67 LINE",
"94 68 LINE",
"94 -60 LINE"
);
},
{
closed = 1;
nodes = (
"263 345 LINE",
"417 345 LINE",
"417 267 LINE",
"263 267 LINE"
);
}
);
width = 681;
}
);
leftKerningGroup = section;
rightKerningGroup = section;
unicode = 00A7;
},
{
glyphname = copyright;
lastChange = "2019-01-02 21:28:37 +0000";
layers = (
{
layerId = "2BED5241-FEE2-452B-8B42-4A46EDD0955E";
paths = (
{
closed = 1;
nodes = (
"901 -138 LINE",
"1107 36 LINE",
"1107 496 LINE",
"901 670 LINE",
"241 670 LINE",
"35 496 LINE",
"35 36 LINE",
"241 -138 LINE"
);
},
{
closed = 1;
nodes = (
"244 105 LINE",
"244 427 LINE",
"368 532 LINE",
"774 532 LINE",
"898 427 LINE",
"898 105 LINE",
"774 0 LINE",
"368 0 LINE"
);
},
{
closed = 1;
nodes = (
"742 45 LINE",
"846 133 LINE",
"846 234 LINE",
"613 234 LINE",
"613 130 LINE",
"529 130 LINE",
"529 402 LINE",
"613 402 LINE",
"613 302 LINE",
"846 302 LINE",
"846 399 LINE",
"742 487 LINE",
"400 487 LINE",
"296 399 LINE",
"296 133 LINE",
"400 45 LINE"
);
}
);
width = 1142;
}
);
leftKerningGroup = copyright;
leftMetricsKey = O;
rightKerningGroup = copyright;
rightMetricsKey = O;
unicode = 00A9;
},
{
glyphname = registered;
lastChange = "2019-01-02 21:28:37 +0000";
layers = (
{
layerId = "2BED5241-FEE2-452B-8B42-4A46EDD0955E";
paths = (
{
closed = 1;
nodes = (
"906 -138 LINE",
"1112 36 LINE",
"1112 496 LINE",
"906 670 LINE",
"246 670 LINE",
"40 496 LINE",
"40 36 LINE",
"246 -138 LINE"
);
},
{
closed = 1;
nodes = (
"249 105 LINE",
"249 427 LINE",
"300 470 LINE",
"300 81 LINE",
"534 81 LINE",
"534 212 LINE",
"598 212 LINE",
"630 81 LINE",
"863 81 LINE",
"809 246 LINE",
"852 283 LINE",
"852 399 LINE",
"748 487 LINE",
"320 487 LINE",
"373 532 LINE",
"779 532 LINE",
"903 427 LINE",
"903 105 LINE",
"779 0 LINE",
"373 0 LINE"
);
},
{
closed = 1;
nodes = (
"534 402 LINE",
"604 402 LINE",
"604 289 LINE",
"534 289 LINE"
);
}
);
width = 1152;
}
);
leftKerningGroup = registered;
rightKerningGroup = registered;
unicode = 00AE;
},
{
glyphname = trademark;
lastChange = "2019-01-02 21:28:37 +0000";
layers = (
{
layerId = "2BED5241-FEE2-452B-8B42-4A46EDD0955E";
paths = (
{
closed = 1;
nodes = (
"600 263 LINE",
"600 428 LINE",
"600 428 LINE",
"646 290 LINE",
"702 290 LINE",
"749 428 LINE",
"749 428 LINE",
"749 263 LINE",
"929 263 LINE",
"929 670 LINE",
"721 670 LINE",
"675 511 LINE",
"629 670 LINE",
"420 670 LINE",
"420 263 LINE"
);
},
{
closed = 1;
nodes = (
"290 263 LINE",
"290 547 LINE",
"389 547 LINE",
"389 670 LINE",
"10 670 LINE",
"10 547 LINE",
"110 547 LINE",
"110 263 LINE"
);
}
);
width = 974;
}
);
leftKerningGroup = trademark;
rightKerningGroup = trademark;
rightMetricsKey = H;
unicode = 2122;
},
{
glyphname = degree;
lastChange = "2019-01-02 21:28:37 +0000";
layers = (
{
hints = (
{
horizontal = 1;
origin = "{0, 1}";
target = "{1, 1}";
type = Stem;
},
{
horizontal = 1;
origin = "{1, 2}";
target = "{0, 0}";
type = Stem;
},
{
place = "{27.647, 135.294}";
type = Stem;
},
{
place = "{234.235, 135.294}";
type = Stem;
},
{
origin = "{0, 0}";
type = Corner;
name = _corner.dia_esq;
options = 1;
},
{
origin = "{0, 2}";
type = Corner;
name = _corner.dia_esq;
options = 1;
},
{
origin = "{0, 1}";
type = Corner;
name = _corner.dia_dir;
options = 1;
},
{
origin = "{0, 3}";
type = Corner;
name = _corner.dia_dir;
options = 1;
},
{
origin = "{1, 3}";
scale = "{0.2353, 0.2353}";
type = Corner;
name = _corner.int_dir;
options = 1;
},
{
origin = "{1, 1}";
scale = "{0.2353, 0.2353}";
type = Corner;
name = _corner.int_dir;
options = 1;
},
{
origin = "{1, 0}";
scale = "{0.2353, 0.2353}";
type = Corner;
name = _corner.int_esq;
options = 1;
},
{
origin = "{1, 2}";
scale = "{0.2353, 0.2353}";
type = Corner;
name = _corner.int_esq;
options = 1;
}
);
layerId = "2BED5241-FEE2-452B-8B42-4A46EDD0955E";
paths = (
{
closed = 1;
nodes = (
"30 670 LINE",
"30 324 LINE",
"372 324 LINE",
"372 670 LINE"
);
},
{
closed = 1;
nodes = (
"236 461 LINE",
"165 461 LINE",
"165 533 LINE",
"236 533 LINE"
);
}
);
width = 402;
}
);
leftKerningGroup = degree;
rightKerningGroup = degree;
unicode = 00B0;
},
{
glyphname = bar;
lastChange = "2019-01-02 21:28:37 +0000";
layers = (
{
layerId = "2BED5241-FEE2-452B-8B42-4A46EDD0955E";
paths = (
{
closed = 1;
nodes = (
"277 -126 LINE",
"277 736 LINE",
"45 736 LINE",
"45 -126 LINE"
);
}
);
width = 322;
}
);
leftKerningGroup = bar;
leftMetricsKey = H;
rightKerningGroup = bar;
rightMetricsKey = H;
unicode = 007C;
},
{
glyphname = brokenbar;
lastChange = "2019-01-02 21:28:37 +0000";
layers = (
{
layerId = "2BED5241-FEE2-452B-8B42-4A46EDD0955E";
paths = (
{
closed = 1;
nodes = (
"277 410 LINE",
"277 736 LINE",
"45 736 LINE",
"45 410 LINE"
);
},
{
closed = 1;
nodes = (
"277 -126 LINE",
"277 200 LINE",
"45 200 LINE",
"45 -126 LINE"
);
}
);
width = 322;
}
);
leftKerningGroup = brokenbar;
leftMetricsKey = H;
rightKerningGroup = brokenbar;
rightMetricsKey = H;
unicode = 00A6;
},
{
glyphname = dagger;
lastChange = "2019-01-02 21:28:37 +0000";
layers = (
{
layerId = "2BED5241-FEE2-452B-8B42-4A46EDD0955E";
paths = (
{
closed = 1;
nodes = (
"376 -36 LINE",
"376 620 LINE",
"143 620 LINE",
"143 -36 LINE"
);
},
{
closed = 1;
nodes = (
"504 318 LINE",
"504 464 LINE",
"15 464 LINE",
"15 318 LINE"
);
}
);
width = 519;
}
);
leftKerningGroup = dagger;
leftMetricsKey = T;
rightKerningGroup = dagger;
rightMetricsKey = T;
unicode = 2020;
},
{
glyphname = daggerdbl;
lastChange = "2019-01-02 21:28:37 +0000";
layers = (
{
layerId = "2BED5241-FEE2-452B-8B42-4A46EDD0955E";
paths = (
{
closed = 1;
nodes = (
"376 -36 LINE",
"376 620 LINE",
"143 620 LINE",
"143 -36 LINE"
);
},
{
closed = 1;
nodes = (
"504 97 LINE",
"504 243 LINE",
"15 243 LINE",
"15 97 LINE"
);
},
{
closed = 1;
nodes = (
"504 341 LINE",
"504 487 LINE",
"15 487 LINE",
"15 341 LINE"
);
}
);
width = 519;
}
);
leftKerningGroup = daggerdbl;
leftMetricsKey = T;
rightKerningGroup = daggerdbl;
rightMetricsKey = T;
unicode = 2021;
},
{
glyphname = numero;
lastChange = "2019-01-02 21:28:37 +0000";
layers = (
{
components = (
{
name = N;
}
);
layerId = "2BED5241-FEE2-452B-8B42-4A46EDD0955E";
paths = (
{
closed = 1;
nodes = (
"955 318 LINE",
"1058 407 LINE",
"1058 581 LINE",
"955 670 LINE",
"806 670 LINE",
"702 581 LINE",
"702 407 LINE",
"806 318 LINE"
);
},
{
closed = 1;
nodes = (
"845 531 LINE",
"916 531 LINE",
"916 457 LINE",
"845 457 LINE"
);
},
{
closed = 1;
nodes = (
"1028 109 LINE",
"1028 245 LINE",
"732 245 LINE",
"732 109 LINE"
);
}
);
width = 1103;
}
);
leftMetricsKey = N;
rightMetricsKey = N;
unicode = 2116;
},
{
glyphname = dieresiscomb;
lastChange = "2019-04-08 23:44:21 +0000";
layers = (
{
anchors = (
{
name = _top;
position = "{298, 665}";
}
);
layerId = "2BED5241-FEE2-452B-8B42-4A46EDD0955E";
paths = (
{
closed = 1;
nodes = (
"267 712 LINE",
"267 855 LINE",
"50 855 LINE",
"50 712 LINE"
);
},
{
closed = 1;
nodes = (
"546 712 LINE",
"546 855 LINE",
"329 855 LINE",
"329 712 LINE"
);
}
);
width = 596;
}
);
unicode = 0308;
},
{
glyphname = dotaccentcomb;
lastChange = "2019-04-08 23:44:32 +0000";
layers = (
{
anchors = (
{
name = _top;
position = "{160, 475}";
}
);
layerId = "2BED5241-FEE2-452B-8B42-4A46EDD0955E";
paths = (
{
closed = 1;
nodes = (
"279 522 LINE",
"279 665 LINE",
"40 665 LINE",
"40 522 LINE"
);
}
);
width = 314;
}
);
leftMetricsKey = n;
rightMetricsKey = n;
unicode = 0307;
},
{
glyphname = acutecomb;
lastChange = "2019-03-20 22:50:44 +0000";
layers = (
{
anchors = (
{
name = _top;
position = "{105, 670}";
}
);
layerId = "2BED5241-FEE2-452B-8B42-4A46EDD0955E";
paths = (
{
closed = 1;
nodes = (
"171 717 LINE",
"319 865 LINE",
"124 865 LINE",
"25 717 LINE"
);
}
);
width = 355;
}
);
unicode = 0301;
},
{
glyphname = hungarumlautcomb;
lastChange = "2019-03-05 18:28:18 +0000";
layers = (
{
anchors = (
{
name = _top;
position = "{216, 670}";
}
);
layerId = "2BED5241-FEE2-452B-8B42-4A46EDD0955E";
paths = (
{
closed = 1;
nodes = (
"182 717 LINE",
"331 867 LINE",
"113 867 LINE",
"25 717 LINE"
);
},
{
closed = 1;
nodes = (
"421 717 LINE",
"570 867 LINE",
"352 867 LINE",
"264 717 LINE"
);
}
);
width = 595;
}
);
unicode = 030B;
},
{
glyphname = circumflexcomb;
lastChange = "2019-03-05 18:28:23 +0000";
layers = (
{
anchors = (
{
name = _top;
position = "{264, 670}";
}
);
layerId = "2BED5241-FEE2-452B-8B42-4A46EDD0955E";
paths = (
{
closed = 1;
nodes = (
"195 717 LINE",
"264 786 LINE",
"264 786 LINE",
"333 717 LINE",
"503 717 LINE",
"391 865 LINE",
"137 865 LINE",
"25 717 LINE"
);
}
);
width = 528;
}
);
unicode = 0302;
},
{
glyphname = brevecomb;
lastChange = "2019-03-23 13:23:55 +0000";
layers = (
{
anchors = (
{
name = _top;
position = "{245, 670}";
}
);
layerId = "2BED5241-FEE2-452B-8B42-4A46EDD0955E";
paths = (
{
closed = 1;
nodes = (
"371 717 LINE",
"465 797 LINE",
"465 865 LINE",
"291 865 LINE",
"291 818 LINE",
"199 818 LINE",
"199 865 LINE",
"25 865 LINE",
"25 797 LINE",
"119 717 LINE"
);
}
);
width = 490;
}
);
unicode = 0306;
},
{
glyphname = ringcomb;
lastChange = "2019-04-10 23:57:39 +0000";
layers = (
{
anchors = (
{
name = _top;
position = "{151, 670}";
}
);
layerId = "2BED5241-FEE2-452B-8B42-4A46EDD0955E";
paths = (
{
closed = 1;
nodes = (
"208 717 LINE",
"277 786 LINE",
"277 866 LINE",
"208 935 LINE",
"94 935 LINE",
"25 866 LINE",
"25 786 LINE",
"94 717 LINE"
);
},
{
closed = 1;
nodes = (
"130 818 LINE",
"130 834 LINE",
"143 847 LINE",
"159 847 LINE",
"172 834 LINE",
"172 818 LINE",
"159 805 LINE",
"143 805 LINE"
);
}
);
width = 302;
}
);
unicode = 030A;
},
{
glyphname = tildecomb;
lastChange = "2019-04-08 23:44:52 +0000";
layers = (
{
anchors = (
{
name = _top;
position = "{258, 670}";
}
);
layerId = "2BED5241-FEE2-452B-8B42-4A46EDD0955E";
paths = (
{
closed = 1;
nodes = (
"163 723 LINE",
"163 752 LINE",
"177 766 LINE",
"193 766 LINE",
"238 717 LINE",
"413 717 LINE",
"489 783 LINE",
"489 864 LINE",
"355 864 LINE",
"355 834 LINE",
"341 820 LINE",
"324 820 LINE",
"280 870 LINE",
"104 870 LINE",
"29 803 LINE",
"29 723 LINE"
);
}
);
width = 517;
}
);
unicode = 0303;
},
{
glyphname = macroncomb;
lastChange = "2019-04-08 23:44:43 +0000";
layers = (
{
anchors = (
{
name = _top;
position = "{240, 670}";
}
);
layerId = "2BED5241-FEE2-452B-8B42-4A46EDD0955E";
paths = (
{
closed = 1;
nodes = (
"488 717 LINE",
"488 853 LINE",
"-8 853 LINE",
"-8 717 LINE"
);
}
);
width = 479;
}
);
unicode = 0304;
},
{
glyphname = hookabovecomb;
lastChange = "2019-03-20 23:35:58 +0000";
layers = (
{
anchors = (
{
name = _top;
position = "{169, 670}";
}
);
layerId = "2BED5241-FEE2-452B-8B42-4A46EDD0955E";
paths = (
{
closed = 1;
nodes = (
"240 717 LINE",
"240 753 LINE",
"279 753 LINE",
"322 787 LINE",
"322 895 LINE",
"278 934 LINE",
"75 934 LINE",
"25 895 LINE",
"25 836 LINE",
"157 836 LINE",
"157 874 LINE",
"186 874 LINE",
"186 814 LINE",
"132 814 LINE",
"97 787 LINE",
"97 717 LINE"
);
}
);
width = 347;
}
);
unicode = 0309;
},
{
glyphname = dblgravecomb;
lastChange = "2019-03-23 15:04:57 +0000";
layers = (
{
anchors = (
{
name = _top;
position = "{379, 670}";
}
);
layerId = "2BED5241-FEE2-452B-8B42-4A46EDD0955E";
paths = (
{
closed = 1;
nodes = (
"570 717 LINE",
"471 865 LINE",
"276 865 LINE",
"424 717 LINE"
);
},
{
closed = 1;
nodes = (
"319 717 LINE",
"220 865 LINE",
"25 865 LINE",
"173 717 LINE"
);
}
);
width = 600;
}
);
unicode = 030F;
},
{
glyphname = breveinvertedcomb;
lastChange = "2019-03-10 19:13:31 +0000";
layers = (
{
anchors = (
{
name = _top;
position = "{245, 674}";
}
);
layerId = "2BED5241-FEE2-452B-8B42-4A46EDD0955E";
paths = (
{
closed = 1;
nodes = (
"199 721 LINE",
"199 768 LINE",
"291 768 LINE",
"291 721 LINE",
"465 721 LINE",
"465 789 LINE",
"371 869 LINE",
"119 869 LINE",
"25 789 LINE",
"25 721 LINE"
);
}
);
width = 600;
}
);
unicode = 0311;
},
{
glyphname = horncomb;
lastChange = "2019-01-02 21:28:37 +0000";
layers = (
{
anchors = (
{
name = _horn;
position = "{33, 565}";
}
);
layerId = "2BED5241-FEE2-452B-8B42-4A46EDD0955E";
paths = (
{
closed = 1;
nodes = (
"185 520 LINE",
"324 707 LINE",
"123 707 LINE",
"91 600 LINE",
"33 600 LINE",
"33 520 LINE"
);
}
);
width = 349;
}
);
unicode = 031B;
},
{
glyphname = commaaccentcomb;
lastChange = "2019-04-12 11:43:04 +0000";
layers = (
{
anchors = (
{
name = _botton;
position = "{172, 0}";
}
);
layerId = "2BED5241-FEE2-452B-8B42-4A46EDD0955E";
paths = (
{
closed = 1;
nodes = (
"153 -213 LINE",
"274 -47 LINE",
"72 -47 LINE",
"26 -213 LINE"
);
}
);
width = 309;
}
);
unicode = 0326;
},
{
glyphname = cedillacomb;
lastChange = "2019-01-02 21:28:37 +0000";
layers = (
{
anchors = (
{
name = _botton;
position = "{137, 0}";
}
);
layerId = "2BED5241-FEE2-452B-8B42-4A46EDD0955E";
paths = (
{
closed = 1;
nodes = (
"174 -114 LINE",
"231 0 LINE",
"43 0 LINE",
"25 -114 LINE"
);
}
);
width = 255;
}
);
unicode = 0327;
},
{
glyphname = ogonekcomb;
lastChange = "2019-01-02 21:28:37 +0000";
layers = (
{
anchors = (
{
name = _ogonek;
position = "{183, 0}";
}
);
layerId = "2BED5241-FEE2-452B-8B42-4A46EDD0955E";
paths = (
{
closed = 1;
nodes = (
"191 -174 LINE",
"191 -58 LINE",
"170 -58 LINE",
"156 -45 LINE",
"156 -24 LINE",
"183 0 LINE",
"74 0 LINE",
"33 -30 LINE",
"33 -111 LINE",
"108 -174 LINE"
);
}
);
width = 208;
}
);
unicode = 0328;
},
{
glyphname = strokeshortcomb;
lastChange = "2019-01-02 21:28:37 +0000";
layers = (
{
anchors = (
{
name = _center;
position = "{204, 241}";
}
);
layerId = "2BED5241-FEE2-452B-8B42-4A46EDD0955E";
paths = (
{
closed = 1;
nodes = (
"413 178 LINE",
"413 304 LINE",
"32 304 LINE",
"32 178 LINE"
);
}
);
width = 445;
}
);
unicode = 0335;
},
{
glyphname = slashshortcomb;
lastChange = "2019-02-10 20:53:11 +0000";
layers = (
{
anchors = (
{
name = _center;
position = "{235, 238}";
}
);
layerId = "2BED5241-FEE2-452B-8B42-4A46EDD0955E";
paths = (
{
closed = 1;
nodes = (
"76 -40 LINE",
"420 495 LINE",
"393 514 LINE",
"49 -21 LINE"
);
}
);
width = 470;
}
);
unicode = 0337;
},
{
glyphname = slashlongcomb;
lastChange = "2019-02-09 17:36:38 +0000";
layers = (
{
guideLines = (
{
position = "{224, 730}";
}
);
layerId = "2BED5241-FEE2-452B-8B42-4A46EDD0955E";
paths = (
{
closed = 1;
nodes = (
"598 667 LINE",
"500 730 LINE",
"40 5 LINE",
"138 -60 LINE"
);
}
);
width = 638;
}
);
leftMetricsKey = i;
rightMetricsKey = i;
unicode = 0338;
},
{
glyphname = hungarumlaut;
lastChange = "2019-02-18 16:55:59 +0000";
layers = (
{
anchors = (
{
name = _top;
position = "{215, 670}";
}
);
layerId = "2BED5241-FEE2-452B-8B42-4A46EDD0955E";
paths = (
{
closed = 1;
nodes = (
"182 722 LINE",
"331 872 LINE",
"113 872 LINE",
"25 722 LINE"
);
},
{
closed = 1;
nodes = (
"421 722 LINE",
"570 872 LINE",
"352 872 LINE",
"264 722 LINE"
);
}
);
width = 595;
}
);
unicode = 02DD;
},
{
glyphname = brevecomb_gravecomb;
lastChange = "2019-04-10 23:13:14 +0000";
layers = (
{
layerId = "2BED5241-FEE2-452B-8B42-4A46EDD0955E";
paths = (
{
closed = 1;
nodes = (
"465 801 LINE",
"465 869 LINE",
"291 869 LINE",
"291 822 LINE",
"199 822 LINE",
"199 869 LINE",
"25 869 LINE",
"25 801 LINE",
"119 721 LINE",
"371 721 LINE"
);
},
{
closed = 1;
nodes = (
"221 1047 LINE",
"26 1047 LINE",
"174 899 LINE",
"320 899 LINE"
);
}
);
width = 600;
}
);
},
{
export = 0;
glyphname = _corner.dia_dir;
lastChange = "2019-01-02 21:28:37 +0000";
layers = (
{
anchors = (
{
name = left;
position = "{139, 383}";
},
{
name = origin;
position = "{225, 383}";
},
{
name = right;
position = "{225, 484}";
}
);
layerId = "2BED5241-FEE2-452B-8B42-4A46EDD0955E";
paths = (
{
closed = 0;
nodes = (
"139 383 LINE",
"225 484 LINE"
);
}
);
width = 609;
}
);
},
{
export = 0;
glyphname = _corner.dia_esq;
lastChange = "2019-01-02 21:28:37 +0000";
layers = (
{
anchors = (
{
name = left;
position = "{73, 390}";
},
{
name = origin;
position = "{174, 390}";
},
{
name = right;
position = "{174, 476}";
}
);
layerId = "2BED5241-FEE2-452B-8B42-4A46EDD0955E";
paths = (
{
closed = 0;
nodes = (
"73 390 LINE",
"174 476 LINE"
);
}
);
width = 609;
}
);
},
{
glyphname = _part.H;
lastChange = "2019-01-02 21:28:37 +0000";
layers = (
{
layerId = "2BED5241-FEE2-452B-8B42-4A46EDD0955E";
paths = (
{
closed = 1;
nodes = (
"314 0 LINE",
"314 670 LINE",
"55 670 LINE",
"55 0 LINE"
);
}
);
width = 389;
}
);
},
{
glyphname = _part.i;
lastChange = "2019-01-02 21:28:37 +0000";
layers = (
{
anchors = (
{
name = top;
position = "{161, 475}";
}
);
layerId = "2BED5241-FEE2-452B-8B42-4A46EDD0955E";
paths = (
{
closed = 1;
nodes = (
"280 0 LINE",
"280 475 LINE",
"41 475 LINE",
"41 0 LINE"
);
}
);
width = 320;
}
);
},
{
glyphname = _part.n;
lastChange = "2019-01-02 21:28:37 +0000";
layers = (
{
hints = (
{
origin = "{0, 5}";
type = Corner;
name = _corner.dia_dir;
options = 1;
}
);
layerId = "2BED5241-FEE2-452B-8B42-4A46EDD0955E";
paths = (
{
closed = 1;
nodes = (
"97 387 LINE",
"126 387 LINE",
"126 377 LINE",
"126 0 LINE",
"365 0 LINE",
"365 475 LINE",
"95 475 LINE",
"-6 405 LINE",
"-6 314 LINE"
);
}
);
width = 403;
}
);
},
{
export = 0;
glyphname = _part.b;
lastChange = "2019-01-02 21:28:37 +0000";
layers = (
{
hints = (
{
origin = "{0, 2}";
type = Corner;
name = _corner.dia_dir;
options = 1;
},
{
origin = "{0, 1}";
type = Corner;
name = _corner.dia_esq;
options = 1;
}
);
layerId = "2BED5241-FEE2-452B-8B42-4A46EDD0955E";
paths = (
{
closed = 1;
nodes = (
"309 0 LINE",
"588 0 LINE",
"588 475 LINE",
"316 475 LINE",
"242 422 LINE",
"242 332 LINE",
"316 387 LINE",
"349 387 LINE",
"349 378 LINE",
"349 90 LINE",
"349 81 LINE",
"320 81 LINE",
"242 129 LINE",
"242 46 LINE"
);
}
);
width = 625;
}
);
},
{
export = 0;
glyphname = _part.l;
lastChange = "2019-01-02 21:28:37 +0000";
layers = (
{
layerId = "2BED5241-FEE2-452B-8B42-4A46EDD0955E";
paths = (
{
closed = 1;
nodes = (
"281 0 LINE",
"281 670 LINE",
"41 670 LINE",
"41 0 LINE"
);
}
);
width = 318;
}
);
},
{
export = 0;
glyphname = _part.p;
lastChange = "2019-01-02 21:28:37 +0000";
layers = (
{
layerId = "2BED5241-FEE2-452B-8B42-4A46EDD0955E";
paths = (
{
closed = 1;
nodes = (
"281 -170 LINE",
"281 475 LINE",
"41 475 LINE",
"41 -170 LINE"
);
}
);
width = 318;
}
);
},
